<?xml version="1.0" encoding="utf-8"?>
<!-- Generator: Adobe Illustrator 15.0.2, SVG Export Plug-In . SVG Version: 6.00 Build 0)  -->
<!DOCTYPE svg PUBLIC "-//W3C//DTD SVG 1.1//EN" "http://www.w3.org/Graphics/SVG/1.1/DTD/svg11.dtd">
<svg version="1.1" id="Layer_1" xmlns="http://www.w3.org/2000/svg" xmlns:xlink="http://www.w3.org/1999/xlink" x="0px" y="0px"
	 width="43.879px" height="27.65px" viewBox="0 0 43.879 27.65" enable-background="new 0 0 43.879 27.65" xml:space="preserve">
<g>
	<path fill="#FFFFFF" d="M0,0h6.404C6.938,0,7.42,0.09,7.855,0.271c0.434,0.182,0.815,0.5,1.15,0.955l11.355,15.297
		c0.336,0.453,0.635,0.926,0.901,1.414s0.484,1.016,0.651,1.584c0.2-0.568,0.424-1.096,0.676-1.584
		c0.25-0.488,0.557-0.961,4.41-6.088c0,0,8.63-11.396,9.049-11.578C36.465,0.09,36.957,0,37.525,0h6.354L21.939,27.65l0,0L0,0z"/>
</g>
</svg>
