<?xml version="1.0" encoding="utf-8"?>
<!-- Generator: Adobe Illustrator 15.0.2, SVG Export Plug-In . SVG Version: 6.00 Build 0)  -->
<!DOCTYPE svg PUBLIC "-//W3C//DTD SVG 1.1//EN" "http://www.w3.org/Graphics/SVG/1.1/DTD/svg11.dtd">
<svg version="1.1" id="Layer_1" xmlns="http://www.w3.org/2000/svg" xmlns:xlink="http://www.w3.org/1999/xlink" x="0px" y="0px"
	 width="183.248px" height="46.4px" viewBox="0 0 183.248 46.4" enable-background="new 0 0 183.248 46.4" xml:space="preserve">
<g>
	<g>
		<path fill="#FFFFFF" d="M27.65,0.527v6.406c0,0.533-0.09,1.016-0.271,1.451c-0.182,0.432-0.5,0.814-0.955,1.15L11.127,20.891
			c-0.453,0.334-0.926,0.633-1.414,0.9c-0.488,0.266-1.016,0.484-1.584,0.65c0.568,0.201,1.096,0.424,1.584,0.678
			c0.488,0.248,0.961,0.557,6.087,4.408l15.297,11.41c-4.218-3.152-3.899-2.779-3.718-2.361c0.182,0.416,0.271,0.91,0.271,1.479
			v6.352L0,22.467l0,0L27.65,0.527z"/>
	</g>
	<g>
		<path fill="#FFFFFF" d="M56.487,16.315h-2.981V9.362h-7.459v6.953h-2.981V0.407h2.981V7.25h7.459V0.407h2.981V16.315z"/>
		<path fill="#FFFFFF" d="M69.092,9.967c0,0.826-0.132,1.046-0.627,1.046H61.49c0.165,2.321,1.298,3.366,3.091,3.366
			c1.771,0,2.454-0.99,3.125-0.99c0.22,0,0.374,0.088,0.495,0.254l0.792,0.99c-1.21,1.418-3.058,1.848-4.653,1.848
			c-3.125,0-5.556-2.102-5.556-6.051c0-3.08,2.046-5.578,5.424-5.578C67.057,4.852,69.092,6.711,69.092,9.967z M61.545,9.373h5.104
			c0-1.408-0.759-2.574-2.387-2.574C62.679,6.799,61.798,7.734,61.545,9.373z"/>
		<path fill="#FFFFFF" d="M71.302,16.315V5.027h1.595c0.561,0,0.726,0.188,0.803,0.683l0.165,1.364
			c0.803-1.397,1.892-2.256,3.246-2.256c0.561,0,1.023,0.133,1.386,0.385l-0.352,2.036c-0.044,0.264-0.187,0.362-0.44,0.362
			c-0.22,0-0.583-0.153-1.21-0.153c-1.133,0-1.915,0.638-2.476,1.837v7.03H71.302z"/>
		<path fill="#FFFFFF" d="M89.838,9.967c0,0.826-0.132,1.046-0.627,1.046h-6.975c0.165,2.321,1.298,3.366,3.091,3.366
			c1.771,0,2.454-0.99,3.125-0.99c0.22,0,0.374,0.088,0.495,0.254l0.792,0.99c-1.21,1.418-3.058,1.848-4.653,1.848
			c-3.125,0-5.556-2.102-5.556-6.051c0-3.08,2.046-5.578,5.424-5.578C87.803,4.852,89.838,6.711,89.838,9.967z M82.291,9.373h5.104
			c0-1.408-0.759-2.574-2.387-2.574C83.424,6.799,82.544,7.734,82.291,9.373z"/>
		<path fill="#FFFFFF" d="M97.833,3.443c-0.936,0-1.716-0.781-1.716-1.705C96.117,0.77,96.898,0,97.833,0
			c0.957,0,1.76,0.77,1.76,1.738C99.593,2.662,98.791,3.443,97.833,3.443z M99.187,5.027v11.288h-2.717V5.027H99.187z"/>
		<path fill="#FFFFFF" d="M108.955,7.229c-0.143,0.23-0.286,0.318-0.539,0.318c-0.528,0-1.155-0.715-2.52-0.715
			c-1.067,0-1.727,0.495-1.727,1.232c0,1.958,5.522,1.023,5.522,4.676c0,2.167-1.606,3.751-4.511,3.751
			c-1.54,0-3.036-0.594-3.917-1.386l0.627-1.034c0.165-0.253,0.363-0.386,0.704-0.386c0.671,0,1.089,0.902,2.717,0.902
			c1.287,0,1.837-0.66,1.837-1.363c0-2.091-5.556-0.925-5.556-4.93c0-1.848,1.474-3.443,4.258-3.443
			c1.551,0,2.872,0.562,3.718,1.397L108.955,7.229z"/>
		<path fill="#FFFFFF" d="M53.297,37.049c0,3.576-2.189,5.832-5.567,5.832s-5.6-2.256-5.6-5.832c0-3.564,2.223-5.797,5.6-5.797
			S53.297,33.484,53.297,37.049z M50.491,37.071c0-2.431-0.88-3.74-2.761-3.74c-1.903,0-2.794,1.32-2.794,3.74
			c0,2.421,0.891,3.719,2.794,3.719C49.611,40.79,50.491,39.503,50.491,37.071z"/>
		<path fill="#FFFFFF" d="M57.904,31.428v7.173c0,1.376,0.638,2.167,1.915,2.167c0.935,0,1.749-0.439,2.486-1.177v-8.163h2.717
			v11.287h-1.661c-0.352,0-0.583-0.164-0.693-0.494l-0.187-0.902c-0.935,0.936-1.969,1.573-3.487,1.573
			c-2.464,0-3.807-1.771-3.807-4.291v-7.173H57.904z"/>
		<path fill="#FFFFFF" d="M67.925,42.715V31.428h1.595c0.561,0,0.726,0.188,0.803,0.682l0.165,1.365
			c0.803-1.398,1.892-2.256,3.246-2.256c0.561,0,1.023,0.132,1.386,0.385l-0.352,2.035c-0.044,0.264-0.187,0.363-0.44,0.363
			c-0.22,0-0.583-0.154-1.21-0.154c-1.133,0-1.915,0.639-2.476,1.838v7.029H67.925z"/>
		<path fill="#FFFFFF" d="M81.158,46.4V31.428h1.661c0.352,0,0.616,0.154,0.693,0.495l0.22,1.045
			c0.914-1.045,2.058-1.749,3.642-1.749c2.464,0,4.17,2.079,4.17,5.765c0,3.378-1.893,5.897-4.852,5.897
			c-1.276,0-2.112-0.408-2.816-1.101v4.62H81.158z M83.875,34.729v5.061c0.616,0.759,1.342,1.023,2.179,1.023
			c1.65,0,2.684-1.222,2.684-3.829c0-2.63-0.869-3.62-2.299-3.62C85.305,33.363,84.568,33.859,83.875,34.729z"/>
		<path fill="#FFFFFF" d="M93.599,42.715V31.428h1.595c0.561,0,0.726,0.188,0.803,0.682l0.165,1.365
			c0.803-1.398,1.892-2.256,3.246-2.256c0.561,0,1.023,0.132,1.386,0.385l-0.352,2.035c-0.044,0.264-0.187,0.363-0.44,0.363
			c-0.22,0-0.583-0.154-1.21-0.154c-1.133,0-1.915,0.639-2.476,1.838v7.029H93.599z"/>
		<path fill="#FFFFFF" d="M112.971,37.049c0,3.576-2.189,5.832-5.567,5.832s-5.6-2.256-5.6-5.832c0-3.564,2.223-5.797,5.6-5.797
			S112.971,33.484,112.971,37.049z M110.166,37.071c0-2.431-0.88-3.74-2.761-3.74c-1.903,0-2.794,1.32-2.794,3.74
			c0,2.421,0.891,3.719,2.794,3.719C109.286,40.79,110.166,39.503,110.166,37.071z"/>
		<path fill="#FFFFFF" d="M115.752,39.768v-6.305h-1.144c-0.297,0-0.539-0.188-0.539-0.572v-1.078l1.815-0.297l0.572-3.08
			c0.055-0.297,0.286-0.463,0.605-0.463h1.408v3.555h2.971v1.936h-2.971v6.117c0,0.704,0.385,1.122,0.968,1.122
			c0.671,0,0.869-0.374,1.144-0.374c0.165,0,0.242,0.076,0.363,0.242l0.814,1.32c-0.792,0.66-1.859,1.001-2.959,1.001
			C116.853,42.892,115.752,41.715,115.752,39.768z"/>
		<path fill="#FFFFFF" d="M133.992,37.049c0,3.576-2.189,5.832-5.567,5.832s-5.6-2.256-5.6-5.832c0-3.564,2.223-5.797,5.6-5.797
			S133.992,33.484,133.992,37.049z M131.186,37.071c0-2.431-0.88-3.74-2.761-3.74c-1.903,0-2.794,1.32-2.794,3.74
			c0,2.421,0.891,3.719,2.794,3.719C130.306,40.79,131.186,39.503,131.186,37.071z"/>
		<path fill="#FFFFFF" d="M136.773,39.768v-6.305h-1.144c-0.297,0-0.539-0.188-0.539-0.572v-1.078l1.815-0.297l0.572-3.08
			c0.055-0.297,0.286-0.463,0.605-0.463h1.408v3.555h2.971v1.936h-2.971v6.117c0,0.704,0.385,1.122,0.968,1.122
			c0.671,0,0.869-0.374,1.144-0.374c0.165,0,0.242,0.076,0.363,0.242l0.814,1.32c-0.792,0.66-1.859,1.001-2.959,1.001
			C137.873,42.892,136.773,41.715,136.773,39.768z"/>
		<path fill="#FFFFFF" d="M148.631,45.818c-0.165,0.385-0.374,0.582-0.902,0.582h-2.024l2.112-4.521l-4.565-10.451h2.376
			c0.44,0,0.649,0.242,0.771,0.506l2.409,5.854c0.165,0.385,0.275,0.803,0.363,1.209c0.121-0.428,0.253-0.813,0.418-1.221
			l2.266-5.842c0.121-0.297,0.407-0.506,0.748-0.506h2.178L148.631,45.818z"/>
		<path fill="#FFFFFF" d="M156.364,46.4V31.428h1.661c0.352,0,0.616,0.154,0.693,0.495l0.22,1.045
			c0.914-1.045,2.058-1.749,3.642-1.749c2.464,0,4.17,2.079,4.17,5.765c0,3.378-1.893,5.897-4.852,5.897
			c-1.276,0-2.112-0.408-2.816-1.101v4.62H156.364z M159.081,34.729v5.061c0.616,0.759,1.342,1.023,2.179,1.023
			c1.65,0,2.684-1.222,2.684-3.829c0-2.63-0.869-3.62-2.299-3.62C160.511,33.363,159.774,33.859,159.081,34.729z"/>
		<path fill="#FFFFFF" d="M178.354,36.367c0,0.825-0.132,1.045-0.627,1.045h-6.975c0.165,2.322,1.298,3.367,3.091,3.367
			c1.771,0,2.454-0.99,3.125-0.99c0.22,0,0.374,0.088,0.495,0.253l0.792,0.99c-1.21,1.419-3.058,1.849-4.653,1.849
			c-3.125,0-5.556-2.102-5.556-6.051c0-3.081,2.046-5.578,5.424-5.578C176.319,31.252,178.354,33.111,178.354,36.367z
			 M170.807,35.773h5.104c0-1.408-0.759-2.574-2.387-2.574C171.94,33.199,171.06,34.135,170.807,35.773z"/>
		<path fill="#FFFFFF" d="M181.586,39.559c0.924,0,1.661,0.736,1.661,1.66c0,0.936-0.737,1.65-1.661,1.65
			c-0.946,0-1.672-0.715-1.672-1.65C179.914,40.295,180.64,39.559,181.586,39.559z"/>
	</g>
</g>
</svg>
