<?xml version="1.0" encoding="utf-8"?>
<!-- Generator: Adobe Illustrator 15.0.2, SVG Export Plug-In . SVG Version: 6.00 Build 0)  -->
<!DOCTYPE svg PUBLIC "-//W3C//DTD SVG 1.1//EN" "http://www.w3.org/Graphics/SVG/1.1/DTD/svg11.dtd">
<svg version="1.1" id="Layer_1" xmlns="http://www.w3.org/2000/svg" xmlns:xlink="http://www.w3.org/1999/xlink" x="0px" y="0px"
	 width="490.602px" height="569.381px" viewBox="0 0 490.602 569.381" enable-background="new 0 0 490.602 569.381"
	 xml:space="preserve">
<g>
	<polygon fill="#FFFFFF" points="489.771,569.171 -0.229,569.38 54.355,373.018 -0.042,0 490.373,0 	"/>
	<g>
		<path fill="#9BD5E2" d="M167.577,473.712h2.035c0.423,0,0.711,0.217,0.811,0.549l2.214,7.787c0.108,0.387,0.198,0.838,0.279,1.342
			c0.099-0.504,0.207-0.955,0.342-1.342l2.557-7.787c0.099-0.279,0.396-0.549,0.801-0.549h0.711c0.423,0,0.702,0.217,0.81,0.549
			l2.539,7.787c0.135,0.387,0.243,0.811,0.342,1.279c0.081-0.469,0.171-0.91,0.271-1.279l2.214-7.787
			c0.081-0.297,0.396-0.549,0.801-0.549h1.899l-4.042,13.018h-2.188l-2.845-8.895c-0.072-0.225-0.153-0.494-0.225-0.793
			c-0.072,0.299-0.153,0.568-0.225,0.793l-2.872,8.895h-2.188L167.577,473.712z"/>
		<path fill="#9BD5E2" d="M197.181,473.712v1.926h-5.771v3.611h4.546v1.863h-4.546v3.682h5.771v1.936h-8.21v-13.018H197.181z"/>
		<path fill="#9BD5E2" d="M216.891,486.729h-1.873c-0.423,0-0.693-0.234-0.81-0.549l-0.973-2.656h-5.393l-0.972,2.656
			c-0.099,0.279-0.396,0.549-0.801,0.549h-1.881l5.113-13.018h2.476L216.891,486.729z M208.464,481.813h4.15l-1.584-4.33
			c-0.144-0.387-0.324-0.918-0.495-1.529c-0.171,0.611-0.333,1.152-0.486,1.549L208.464,481.813z"/>
		<path fill="#9BD5E2" d="M222.081,481.643v5.086h-2.421v-13.018h3.97c3.556,0,5.014,1.539,5.014,3.744
			c0,1.766-1.044,3.143-2.872,3.719c0.306,0.172,0.567,0.424,0.792,0.748l3.259,4.807h-2.179c-0.423,0-0.702-0.17-0.909-0.486
			l-2.737-4.168c-0.207-0.314-0.405-0.432-0.882-0.432H222.081z M222.081,479.905h1.513c1.836,0,2.683-0.953,2.683-2.268
			c0-1.324-0.855-2.053-2.646-2.053h-1.549V479.905z"/>
		<path fill="#9BD5E2" d="M240.929,473.712v1.926h-5.771v3.611h4.546v1.863h-4.546v3.682h5.771v1.936h-8.21v-13.018H240.929z"/>
		<path fill="#9BD5E2" d="M258.488,483.813l0.955,1.035c-1.055,1.305-2.566,2.025-4.727,2.025c-3.854,0-6.275-2.781-6.275-6.652
			c0-3.908,2.719-6.654,6.68-6.654c1.936,0,3.357,0.676,4.393,1.693l-0.809,1.125c-0.1,0.145-0.234,0.27-0.496,0.27
			c-0.549,0-1.008-1.025-3.105-1.025c-2.449,0-4.188,1.756-4.188,4.592c0,2.916,1.756,4.6,3.953,4.6c1.314,0,2.088-0.262,2.871-0.98
			c0.117-0.109,0.252-0.182,0.406-0.182C258.281,483.659,258.389,483.714,258.488,483.813z"/>
		<path fill="#9BD5E2" d="M268.514,486.874c-3.943,0-6.609-2.826-6.609-6.652s2.666-6.654,6.609-6.654
			c3.934,0,6.59,2.836,6.59,6.654C275.104,484.048,272.447,486.874,268.514,486.874z M268.514,475.63
			c-2.549,0-4.133,1.736-4.133,4.592c0,2.854,1.584,4.582,4.133,4.582c2.547,0,4.105-1.729,4.105-4.582
			C272.619,477.366,271.061,475.63,268.514,475.63z"/>
		<path fill="#9BD5E2" d="M285.434,482.552c0.172-0.432,0.342-0.855,0.549-1.242l3.854-7.211c0.197-0.369,0.387-0.387,0.811-0.387
			h1.828v13.018h-2.135v-8.408c0-0.314,0.018-0.693,0.055-1.08l-3.934,7.383c-0.182,0.332-0.469,0.529-0.855,0.529h-0.334
			c-0.387,0-0.676-0.197-0.855-0.529l-3.988-7.41c0.045,0.396,0.064,0.783,0.064,1.107v8.408h-2.135v-13.018h1.828
			c0.422,0,0.621,0.018,0.818,0.387l3.891,7.23C285.102,481.716,285.262,482.13,285.434,482.552z"/>
		<path fill="#9BD5E2" d="M299.176,486.729h-2.432v-13.018h2.432V486.729z"/>
		<path fill="#9BD5E2" d="M305.529,474.098l6.832,8.705c-0.045-0.422-0.062-0.828-0.062-1.178v-7.914h2.135v13.018h-1.252
			c-0.387,0-0.604-0.1-0.846-0.414l-6.807-8.67c0.035,0.387,0.055,0.775,0.055,1.09v7.994h-2.135v-13.018h1.27
			C305.143,473.712,305.26,473.757,305.529,474.098z"/>
		<path fill="#9BD5E2" d="M326.969,484.389v-2.369h-1.629c-0.316,0-0.506-0.197-0.506-0.449v-1.369h4.332v5.268
			c-1.324,0.963-2.828,1.404-4.971,1.404c-3.781,0-6.545-2.781-6.545-6.652c0-3.926,2.629-6.654,6.77-6.654
			c2.125,0,3.656,0.693,4.736,1.701l-0.703,1.1c-0.135,0.225-0.324,0.332-0.549,0.332c-0.145,0-0.287-0.045-0.441-0.143
			c-0.773-0.461-1.529-0.928-3.123-0.928c-2.566,0-4.213,1.809-4.213,4.592c0,2.988,1.773,4.725,4.258,4.725
			C325.475,484.946,326.24,484.739,326.969,484.389z"/>
		<path fill="#9BD5E2" d="M143.348,495.311v1.99h-3.917v11.027h-2.421v-11.027h-3.935v-1.99H143.348z"/>
		<path fill="#9BD5E2" d="M151.428,508.473c-3.943,0-6.608-2.826-6.608-6.652s2.665-6.654,6.608-6.654
			c3.935,0,6.59,2.836,6.59,6.654C158.019,505.647,155.363,508.473,151.428,508.473z M151.428,497.229
			c-2.547,0-4.132,1.738-4.132,4.592s1.584,4.582,4.132,4.582c2.548,0,4.105-1.729,4.105-4.582S153.976,497.229,151.428,497.229z"/>
		<path fill="#9BD5E2" d="M168.6,500.768h0.567c0.459,0,0.738-0.117,0.954-0.396l3.592-4.547c0.297-0.387,0.594-0.514,1.098-0.514
			h2.089l-4.384,5.41c-0.279,0.334-0.513,0.559-0.801,0.703c0.396,0.145,0.702,0.404,0.999,0.811l4.52,6.094h-2.143
			c-0.576,0-0.81-0.162-1-0.477l-3.682-4.807c-0.243-0.316-0.495-0.441-1.044-0.441H168.6v5.725h-2.422v-13.025h2.422V500.768z"/>
		<path fill="#9BD5E2" d="M182.738,508.329h-2.431v-13.018h2.431V508.329z"/>
		<path fill="#9BD5E2" d="M196.303,505.413l0.955,1.035c-1.053,1.305-2.566,2.025-4.727,2.025c-3.853,0-6.275-2.781-6.275-6.652
			c0-3.908,2.719-6.654,6.68-6.654c1.936,0,3.358,0.676,4.393,1.693l-0.81,1.125c-0.099,0.145-0.234,0.27-0.495,0.27
			c-0.549,0-1.008-1.025-3.106-1.025c-2.449,0-4.187,1.756-4.187,4.592c0,2.916,1.756,4.6,3.953,4.6c1.314,0,2.088-0.26,2.872-0.98
			c0.117-0.109,0.252-0.18,0.405-0.18C196.096,505.26,196.205,505.313,196.303,505.413z"/>
		<path fill="#9BD5E2" d="M202.934,500.768h0.567c0.459,0,0.738-0.117,0.954-0.396l3.592-4.547c0.297-0.387,0.594-0.514,1.098-0.514
			h2.089l-4.384,5.41c-0.279,0.334-0.513,0.559-0.801,0.703c0.396,0.145,0.702,0.404,0.999,0.811l4.52,6.094h-2.143
			c-0.576,0-0.81-0.162-1-0.477l-3.682-4.807c-0.243-0.316-0.495-0.441-1.044-0.441h-0.766v5.725h-2.421v-13.025h2.421V500.768z"/>
		<path fill="#9BD5E2" d="M221.322,497.678c-0.135,0.262-0.297,0.361-0.54,0.361c-0.486,0-1.134-0.9-2.62-0.9
			c-1.332,0-2.017,0.676-2.017,1.639c0,2.467,6.005,1.143,6.005,5.473c0,2.35-1.647,4.223-4.519,4.223
			c-1.657,0-3.268-0.676-4.276-1.711l0.702-1.16c0.135-0.172,0.324-0.297,0.549-0.297c0.603,0,1.305,1.188,3.097,1.188
			c1.377,0,2.17-0.676,2.17-1.9c0-2.754-5.996-0.926-5.996-5.689c0-1.908,1.548-3.736,4.258-3.736c1.54,0,2.872,0.506,3.781,1.369
			L221.322,497.678z"/>
		<path fill="#9BD5E2" d="M234.526,495.311v1.99h-3.917v11.027h-2.421v-11.027h-3.934v-1.99H234.526z"/>
		<path fill="#9BD5E2" d="M247.531,508.329h-1.872c-0.423,0-0.693-0.232-0.81-0.549l-0.973-2.656h-5.393l-0.972,2.656
			c-0.099,0.279-0.396,0.549-0.801,0.549h-1.881l5.113-13.018h2.476L247.531,508.329z M239.105,503.415h4.15l-1.584-4.33
			c-0.144-0.389-0.324-0.92-0.495-1.531c-0.171,0.611-0.333,1.152-0.486,1.549L239.105,503.415z"/>
		<path fill="#9BD5E2" d="M252.722,503.243v5.086h-2.421v-13.018h3.971c3.555,0,5.014,1.539,5.014,3.746
			c0,1.764-1.045,3.141-2.871,3.717c0.305,0.172,0.566,0.424,0.791,0.748l3.26,4.807h-2.18c-0.422,0-0.701-0.17-0.908-0.486
			l-2.736-4.168c-0.207-0.314-0.406-0.432-0.883-0.432H252.722z M252.722,501.505h1.513c1.836,0,2.684-0.953,2.684-2.268
			c0-1.324-0.855-2.053-2.646-2.053h-1.55V501.505z"/>
		<path fill="#9BD5E2" d="M272.029,495.311v1.99h-3.916v11.027h-2.422v-11.027h-3.934v-1.99H272.029z"/>
		<path fill="#9BD5E2" d="M283.125,495.311v1.928h-5.77v3.609h4.545v1.863h-4.545v3.682h5.77v1.936h-8.209v-13.018H283.125z"/>
		<path fill="#9BD5E2" d="M289.072,503.243v5.086h-2.422v-13.018h3.971c3.557,0,5.014,1.539,5.014,3.746
			c0,1.764-1.043,3.141-2.871,3.717c0.307,0.172,0.566,0.424,0.793,0.748l3.258,4.807h-2.178c-0.424,0-0.703-0.17-0.91-0.486
			l-2.736-4.168c-0.207-0.314-0.404-0.432-0.883-0.432H289.072z M289.072,501.505h1.514c1.836,0,2.682-0.953,2.682-2.268
			c0-1.324-0.855-2.053-2.646-2.053h-1.549V501.505z"/>
		<path fill="#9BD5E2" d="M311.512,497.678c-0.137,0.262-0.297,0.361-0.541,0.361c-0.486,0-1.135-0.9-2.619-0.9
			c-1.332,0-2.018,0.676-2.018,1.639c0,2.467,6.006,1.143,6.006,5.473c0,2.35-1.648,4.223-4.52,4.223
			c-1.656,0-3.268-0.676-4.277-1.711l0.703-1.16c0.135-0.172,0.324-0.297,0.549-0.297c0.604,0,1.305,1.188,3.098,1.188
			c1.377,0,2.17-0.676,2.17-1.9c0-2.754-5.996-0.926-5.996-5.689c0-1.908,1.547-3.736,4.258-3.736c1.539,0,2.871,0.506,3.781,1.369
			L311.512,497.678z"/>
		<path fill="#9BD5E2" d="M321.438,508.473c-3.943,0-6.607-2.826-6.607-6.652s2.664-6.654,6.607-6.654
			c3.934,0,6.59,2.836,6.59,6.654C328.027,505.647,325.371,508.473,321.438,508.473z M321.438,497.229
			c-2.547,0-4.133,1.738-4.133,4.592s1.586,4.582,4.133,4.582s4.105-1.729,4.105-4.582S323.984,497.229,321.438,497.229z"/>
		<path fill="#9BD5E2" d="M337.178,508.473c-3.941,0-6.607-2.826-6.607-6.652s2.666-6.654,6.607-6.654
			c3.936,0,6.592,2.836,6.592,6.654C343.77,505.647,341.113,508.473,337.178,508.473z M337.178,497.229
			c-2.547,0-4.131,1.738-4.131,4.592s1.584,4.582,4.131,4.582c2.549,0,4.105-1.729,4.105-4.582S339.727,497.229,337.178,497.229z"/>
		<path fill="#9BD5E2" d="M349.102,495.698l6.834,8.707c-0.045-0.424-0.062-0.828-0.062-1.18v-7.914h2.133v13.018h-1.252
			c-0.387,0-0.602-0.098-0.846-0.414l-6.807-8.668c0.037,0.387,0.055,0.773,0.055,1.088v7.994h-2.133v-13.018h1.27
			C348.715,495.311,348.832,495.356,349.102,495.698z"/>
		<path fill="#9BD5E2" d="M362.691,505.745c0.756,0,1.359,0.604,1.359,1.361c0,0.764-0.604,1.35-1.359,1.35
			c-0.773,0-1.367-0.586-1.367-1.35C361.324,506.348,361.918,505.745,362.691,505.745z"/>
		<path fill="#9BD5E2" d="M120.346,529.93v-13.02h4.492c3.403,0,4.79,1.342,4.79,3.467c0,1.215-0.702,2.277-2.314,2.826
			c1.792,0.406,2.683,1.369,2.683,2.9c0,2.205-1.71,3.826-4.735,3.826H120.346z M122.768,522.548h1.936
			c1.647,0,2.512-0.576,2.512-1.881c0-1.359-0.748-1.883-2.377-1.883h-2.07V522.548z M122.768,524.221v3.818h2.458
			c1.792,0,2.376-0.918,2.376-1.99c0-1.125-0.693-1.828-2.385-1.828H122.768z"/>
		<path fill="#9BD5E2" d="M141.633,516.911v1.928h-5.771v3.609h4.546v1.863h-4.546v3.684h5.771v1.936h-8.21v-13.02H141.633z"/>
		<path fill="#9BD5E2" d="M158.112,516.911v1.928h-5.771v3.854h4.871v1.936h-4.871v5.303h-2.439v-13.02H158.112z"/>
		<path fill="#9BD5E2" d="M164.086,529.93h-2.431v-13.02h2.431V529.93z"/>
		<path fill="#9BD5E2" d="M170.862,524.843v5.088h-2.421v-13.02h3.97c3.556,0,5.014,1.541,5.014,3.746
			c0,1.764-1.044,3.143-2.872,3.719c0.306,0.17,0.567,0.422,0.792,0.746l3.259,4.809h-2.179c-0.423,0-0.702-0.172-0.909-0.486
			l-2.737-4.168c-0.207-0.316-0.405-0.434-0.882-0.434H170.862z M170.862,523.106h1.513c1.836,0,2.683-0.955,2.683-2.27
			c0-1.322-0.855-2.053-2.646-2.053h-1.549V523.106z"/>
		<path fill="#9BD5E2" d="M188.477,519.28c-0.135,0.26-0.297,0.359-0.54,0.359c-0.486,0-1.134-0.9-2.62-0.9
			c-1.332,0-2.017,0.676-2.017,1.639c0,2.467,6.005,1.143,6.005,5.475c0,2.35-1.647,4.221-4.519,4.221
			c-1.657,0-3.268-0.674-4.276-1.709l0.702-1.162c0.135-0.172,0.324-0.297,0.549-0.297c0.603,0,1.305,1.188,3.097,1.188
			c1.377,0,2.169-0.674,2.169-1.898c0-2.756-5.996-0.928-5.996-5.689c0-1.91,1.548-3.736,4.258-3.736
			c1.54,0,2.872,0.504,3.781,1.367L188.477,519.28z"/>
		<path fill="#9BD5E2" d="M201.681,516.911v1.99h-3.917v11.029h-2.421v-11.029h-3.935v-1.99H201.681z"/>
		<path fill="#9BD5E2" d="M218.564,516.911v1.99h-3.917v11.029h-2.421v-11.029h-3.935v-1.99H218.564z"/>
		<path fill="#9BD5E2" d="M226.645,530.073c-3.943,0-6.608-2.826-6.608-6.652s2.665-6.652,6.608-6.652
			c3.935,0,6.59,2.836,6.59,6.652C233.235,527.247,230.58,530.073,226.645,530.073z M226.645,518.829
			c-2.547,0-4.132,1.738-4.132,4.592s1.584,4.582,4.132,4.582c2.548,0,4.105-1.729,4.105-4.582S229.193,518.829,226.645,518.829z"/>
		<path fill="#9BD5E2" d="M249.875,527.589v-2.367h-1.629c-0.316,0-0.505-0.197-0.505-0.451v-1.367h4.331v5.266
			c-1.324,0.965-2.828,1.404-4.971,1.404c-3.781,0-6.544-2.781-6.544-6.652c0-3.926,2.629-6.652,6.77-6.652
			c2.124,0,3.655,0.693,4.735,1.701l-0.702,1.098c-0.135,0.225-0.324,0.334-0.55,0.334c-0.144,0-0.287-0.045-0.44-0.145
			c-0.774-0.459-1.53-0.928-3.124-0.928c-2.565,0-4.213,1.811-4.213,4.592c0,2.988,1.774,4.727,4.258,4.727
			C248.381,528.147,249.146,527.94,249.875,527.589z"/>
		<path fill="#9BD5E2" d="M263.889,516.911v1.928h-5.771v3.609h4.547v1.863h-4.547v3.684h5.771v1.936h-8.211v-13.02H263.889z"/>
		<path fill="#9BD5E2" d="M276.506,516.911v1.99h-3.916v11.029h-2.422v-11.029h-3.934v-1.99H276.506z"/>
		<path fill="#9BD5E2" d="M286.295,517.3l6.834,8.705c-0.045-0.424-0.062-0.828-0.062-1.18v-7.914h2.133v13.02h-1.252
			c-0.387,0-0.602-0.1-0.846-0.414l-6.807-8.67c0.037,0.387,0.055,0.773,0.055,1.09v7.994h-2.133v-13.02h1.27
			C285.908,516.911,286.025,516.958,286.295,517.3z"/>
		<path fill="#9BD5E2" d="M305.07,530.073c-3.943,0-6.607-2.826-6.607-6.652s2.664-6.652,6.607-6.652c3.936,0,6.59,2.836,6.59,6.652
			C311.66,527.247,309.006,530.073,305.07,530.073z M305.07,518.829c-2.547,0-4.131,1.738-4.131,4.592s1.584,4.582,4.131,4.582
			c2.549,0,4.105-1.729,4.105-4.582S307.619,518.829,305.07,518.829z"/>
		<path fill="#9BD5E2" d="M323.387,516.911v1.99h-3.916v11.029h-2.422v-11.029h-3.934v-1.99H323.387z"/>
		<path fill="#9BD5E2" d="M329,529.93h-2.43v-13.02H329V529.93z"/>
		<path fill="#9BD5E2" d="M341.486,516.911v1.928h-5.771v3.854h4.871v1.936h-4.871v5.303h-2.439v-13.02H341.486z"/>
		<path fill="#9BD5E2" d="M347.459,529.93h-2.43v-13.02h2.43V529.93z"/>
		<path fill="#9BD5E2" d="M359.943,516.911v1.928h-5.77v3.609h4.545v1.863h-4.545v3.684h5.77v1.936h-8.209v-13.02H359.943z"/>
		<path fill="#9BD5E2" d="M368.357,529.93h-4.969v-13.02h4.969c3.936,0,6.592,2.693,6.592,6.51
			C374.949,527.247,372.293,529.93,368.357,529.93z M368.357,518.839h-2.529v9.164h2.529c2.539,0,4.115-1.729,4.115-4.582
			S370.896,518.839,368.357,518.839z"/>
		<path fill="#9BD5E2" d="M380.129,527.346c0.756,0,1.359,0.604,1.359,1.359c0,0.766-0.604,1.35-1.359,1.35
			c-0.773,0-1.369-0.584-1.369-1.35C378.76,527.95,379.355,527.346,380.129,527.346z M381.201,516.911v5.15
			c0,1.09-0.117,2.098-0.297,3.277H379.4c-0.18-1.18-0.297-2.188-0.297-3.277v-5.15H381.201z"/>
	</g>
	<polygon fill="#9BD5E2" points="491.246,66.849 12.356,85.955 -0.644,0.087 490.973,0.087 	"/>
	<g>
		<path fill="#FFFFFF" d="M85.62,54.358h-3.945V41.166H66.054v13.192h-3.946V25.363h3.946v12.93h15.621v-12.93h3.945V54.358z"/>
		<path fill="#FFFFFF" d="M114.615,25.363v3.197h-13.921v9.631h11.27v3.076h-11.27v9.895h13.921v3.197H96.749V25.363H114.615z"/>
		<path fill="#FFFFFF" d="M135.476,42.825v11.533h-3.905V42.825l-10.623-17.462h3.439c0.351,0,0.627,0.088,0.83,0.263
			c0.203,0.175,0.377,0.391,0.526,0.647l6.636,11.27c0.27,0.473,0.496,0.917,0.678,1.335c0.182,0.418,0.347,0.83,0.496,1.234
			c0.148-0.418,0.31-0.836,0.485-1.254s0.398-0.856,0.668-1.315l6.616-11.27c0.122-0.216,0.287-0.421,0.496-0.617
			c0.209-0.195,0.482-0.293,0.819-0.293h3.48L135.476,42.825z"/>
		<path fill="#FFFFFF" d="M149.114,51.869c0-0.31,0.057-0.604,0.172-0.88c0.115-0.276,0.276-0.519,0.486-0.728
			c0.209-0.209,0.462-0.375,0.759-0.496c0.296-0.121,0.62-0.182,0.971-0.182c0.405,0,0.766,0.075,1.083,0.223
			c0.317,0.149,0.58,0.354,0.789,0.617s0.368,0.566,0.476,0.911c0.108,0.344,0.162,0.718,0.162,1.123
			c0,0.607-0.088,1.238-0.263,1.892c-0.176,0.654-0.425,1.302-0.749,1.942s-0.726,1.265-1.204,1.872
			c-0.479,0.607-1.022,1.167-1.629,1.679l-0.607-0.587c-0.175-0.162-0.263-0.351-0.263-0.566c0-0.175,0.094-0.357,0.283-0.546
			c0.135-0.148,0.307-0.348,0.516-0.597c0.209-0.25,0.421-0.537,0.637-0.86s0.415-0.681,0.597-1.072s0.313-0.809,0.395-1.254h-0.263
			c-0.351,0-0.667-0.061-0.951-0.182c-0.284-0.122-0.53-0.293-0.739-0.516c-0.209-0.222-0.371-0.485-0.486-0.789
			C149.171,52.568,149.114,52.234,149.114,51.869z"/>
		<path fill="#FFFFFF" d="M200.346,39.871c0,2.172-0.344,4.148-1.032,5.928c-0.688,1.781-1.659,3.305-2.914,4.573
			s-2.759,2.249-4.512,2.944c-1.754,0.695-3.696,1.042-5.827,1.042h-10.846V25.363h10.846c2.131,0,4.073,0.348,5.827,1.042
			c1.753,0.695,3.258,1.68,4.512,2.954c1.254,1.275,2.226,2.803,2.914,4.583C200.001,35.723,200.346,37.699,200.346,39.871z
			 M196.319,39.871c0-1.781-0.243-3.372-0.729-4.775c-0.485-1.403-1.173-2.59-2.063-3.561c-0.891-0.971-1.97-1.713-3.238-2.226
			s-2.678-0.769-4.229-0.769h-6.9v22.642h6.9c1.551,0,2.96-0.256,4.229-0.769c1.268-0.512,2.347-1.251,3.238-2.215
			c0.89-0.964,1.578-2.148,2.063-3.551C196.076,43.243,196.319,41.651,196.319,39.871z"/>
		<path fill="#FFFFFF" d="M214.043,42.259v12.1h-3.905V25.363h8.195c1.834,0,3.419,0.186,4.755,0.557s2.438,0.907,3.308,1.608
			c0.87,0.702,1.514,1.548,1.933,2.54c0.418,0.991,0.627,2.101,0.627,3.328c0,1.025-0.162,1.983-0.485,2.874
			c-0.324,0.89-0.792,1.689-1.406,2.397c-0.614,0.708-1.363,1.312-2.246,1.811c-0.884,0.499-1.885,0.877-3.005,1.133
			c0.486,0.284,0.917,0.695,1.295,1.234l8.458,11.513h-3.48c-0.715,0-1.241-0.276-1.578-0.83l-7.527-10.36
			c-0.229-0.324-0.479-0.556-0.749-0.698c-0.27-0.142-0.675-0.212-1.214-0.212H214.043z M214.043,39.406h4.107
			c1.146,0,2.155-0.138,3.025-0.415c0.87-0.276,1.599-0.667,2.185-1.173c0.587-0.506,1.029-1.109,1.326-1.811
			c0.296-0.701,0.445-1.477,0.445-2.327c0-1.726-0.57-3.028-1.709-3.905c-1.14-0.877-2.836-1.315-5.089-1.315h-4.29V39.406z"/>
		<path fill="#FFFFFF" d="M257.709,25.363v3.197h-13.922v9.631h11.27v3.076h-11.27v9.895h13.922v3.197h-17.868V25.363H257.709z"/>
		<path fill="#FFFFFF" d="M291.256,54.358h-3.035c-0.352,0-0.635-0.087-0.85-0.263c-0.217-0.175-0.379-0.397-0.486-0.667
			l-2.711-7.001h-13.01l-2.713,7.001c-0.094,0.243-0.256,0.458-0.484,0.647c-0.23,0.189-0.514,0.283-0.85,0.283h-3.035
			l11.594-28.995h3.986L291.256,54.358z M272.256,43.594h10.826l-4.553-11.796c-0.297-0.729-0.588-1.639-0.871-2.732
			c-0.148,0.553-0.293,1.062-0.436,1.528c-0.141,0.465-0.279,0.874-0.414,1.224L272.256,43.594z"/>
		<path fill="#FFFFFF" d="M313.725,44.899c0.143,0.358,0.279,0.718,0.416,1.083c0.133-0.377,0.275-0.738,0.424-1.083
			c0.148-0.344,0.316-0.691,0.506-1.042l9.814-17.826c0.174-0.311,0.355-0.499,0.545-0.567c0.189-0.067,0.459-0.101,0.811-0.101
			h2.893v28.995h-3.439V33.052c0-0.283,0.006-0.587,0.02-0.911s0.033-0.654,0.061-0.991L315.84,49.28
			c-0.338,0.607-0.811,0.911-1.416,0.911h-0.568c-0.605,0-1.078-0.304-1.416-0.911l-10.156-18.19c0.039,0.351,0.07,0.695,0.09,1.032
			c0.021,0.337,0.031,0.647,0.031,0.931v21.306h-3.439V25.363h2.893c0.352,0,0.621,0.034,0.811,0.101
			c0.188,0.068,0.369,0.256,0.545,0.567l10.016,17.846C313.418,44.201,313.584,44.542,313.725,44.899z"/>
		<path fill="#FFFFFF" d="M358.107,25.363v3.197h-13.92v9.631h11.27v3.076h-11.27v9.895h13.92v3.197H340.24V25.363H358.107z"/>
		<path fill="#FFFFFF" d="M372.109,42.259v12.1h-3.904V25.363h8.193c1.836,0,3.42,0.186,4.756,0.557s2.438,0.907,3.309,1.608
			c0.869,0.702,1.514,1.548,1.932,2.54c0.418,0.991,0.627,2.101,0.627,3.328c0,1.025-0.162,1.983-0.484,2.874
			c-0.324,0.89-0.793,1.689-1.406,2.397c-0.615,0.708-1.363,1.312-2.246,1.811c-0.885,0.499-1.887,0.877-3.006,1.133
			c0.486,0.284,0.918,0.695,1.295,1.234l8.459,11.513h-3.48c-0.715,0-1.242-0.276-1.578-0.83l-7.527-10.36
			c-0.23-0.324-0.479-0.556-0.748-0.698c-0.271-0.142-0.676-0.212-1.215-0.212H372.109z M372.109,39.406h4.107
			c1.146,0,2.154-0.138,3.025-0.415c0.869-0.276,1.598-0.667,2.186-1.173c0.586-0.506,1.027-1.109,1.324-1.811
			c0.297-0.701,0.445-1.477,0.445-2.327c0-1.726-0.57-3.028-1.709-3.905c-1.141-0.877-2.836-1.315-5.09-1.315h-4.289V39.406z"/>
		<path fill="#FFFFFF" d="M412.76,29.895c-0.121,0.203-0.25,0.354-0.385,0.456s-0.311,0.152-0.525,0.152
			c-0.23,0-0.496-0.115-0.801-0.344c-0.303-0.229-0.688-0.482-1.152-0.759c-0.465-0.276-1.025-0.529-1.68-0.759
			c-0.654-0.229-1.447-0.344-2.377-0.344c-0.877,0-1.652,0.118-2.328,0.354c-0.674,0.236-1.236,0.556-1.689,0.961
			c-0.451,0.405-0.791,0.88-1.021,1.427c-0.229,0.546-0.344,1.136-0.344,1.771c0,0.809,0.199,1.48,0.598,2.013
			c0.396,0.533,0.924,0.988,1.578,1.366c0.654,0.378,1.396,0.705,2.225,0.981c0.83,0.276,1.68,0.563,2.551,0.86
			c0.869,0.297,1.719,0.631,2.549,1.001c0.83,0.371,1.57,0.84,2.227,1.406c0.652,0.566,1.18,1.261,1.578,2.084
			c0.396,0.823,0.596,1.835,0.596,3.035c0,1.268-0.215,2.458-0.646,3.571s-1.062,2.081-1.893,2.904s-1.848,1.47-3.055,1.942
			c-1.207,0.472-2.58,0.708-4.117,0.708c-1.877,0-3.586-0.34-5.131-1.022c-1.545-0.681-2.863-1.602-3.955-2.762l1.133-1.861
			c0.107-0.148,0.24-0.273,0.395-0.375s0.328-0.152,0.516-0.152c0.283,0,0.607,0.152,0.973,0.456
			c0.363,0.303,0.818,0.637,1.365,1.001s1.207,0.698,1.982,1.001s1.723,0.455,2.844,0.455c0.93,0,1.76-0.128,2.488-0.384
			c0.729-0.256,1.346-0.617,1.852-1.083s0.893-1.022,1.164-1.669c0.27-0.647,0.404-1.369,0.404-2.165
			c0-0.876-0.199-1.595-0.598-2.155c-0.398-0.56-0.92-1.028-1.568-1.406c-0.646-0.377-1.385-0.698-2.215-0.961
			c-0.83-0.263-1.68-0.533-2.551-0.81c-0.869-0.276-1.719-0.597-2.549-0.961s-1.568-0.836-2.215-1.417
			c-0.648-0.58-1.17-1.305-1.568-2.175c-0.398-0.87-0.598-1.945-0.598-3.227c0-1.025,0.199-2.017,0.598-2.975
			c0.398-0.958,0.975-1.807,1.73-2.549c0.754-0.742,1.689-1.335,2.801-1.781c1.113-0.445,2.393-0.667,3.836-0.667
			c1.617,0,3.096,0.256,4.43,0.769c1.336,0.513,2.502,1.254,3.502,2.226L412.76,29.895z"/>
		<path fill="#FFFFFF" d="M424.293,52.133c0-0.351,0.062-0.681,0.191-0.992c0.129-0.31,0.305-0.58,0.527-0.809
			s0.488-0.412,0.799-0.546s0.641-0.203,0.99-0.203c0.352,0,0.682,0.068,0.992,0.203s0.58,0.317,0.809,0.546
			c0.23,0.229,0.408,0.499,0.537,0.809c0.129,0.311,0.191,0.641,0.191,0.992c0,0.364-0.062,0.698-0.191,1.001
			s-0.307,0.57-0.537,0.799c-0.229,0.229-0.498,0.408-0.809,0.536s-0.641,0.192-0.992,0.192c-0.35,0-0.68-0.064-0.99-0.192
			s-0.576-0.307-0.799-0.536s-0.398-0.496-0.527-0.799S424.293,52.497,424.293,52.133z M428.582,25.363v11.574
			c0,0.607-0.01,1.201-0.029,1.781c-0.021,0.58-0.051,1.163-0.092,1.75s-0.092,1.187-0.152,1.801
			c-0.061,0.614-0.131,1.271-0.213,1.973h-2.447c-0.082-0.702-0.152-1.359-0.213-1.973c-0.061-0.614-0.111-1.214-0.152-1.801
			c-0.039-0.587-0.07-1.17-0.09-1.75c-0.021-0.58-0.031-1.174-0.031-1.781V25.363H428.582z"/>
	</g>
	<g>
		<path fill="#9BD5E1" d="M229.103,170.64h-2.06v-13.563h-17.724v13.563h-2.061v-28.306h2.061v13.203h17.724v-13.203h2.06V170.64z"
			/>
		<path fill="#9BD5E1" d="M251.405,159.137c0,0.58-0.16,0.76-0.54,0.76h-14.383v0.38c0,5.981,2.881,9.102,7.362,9.102
			c4.021,0,5.762-2.141,6.281-2.141c0.18,0,0.301,0.06,0.4,0.2l0.52,0.64c-1.279,1.601-4.341,2.821-7.341,2.821
			c-5.461,0-9.102-3.861-9.102-10.623c0-5.701,3.321-9.862,8.982-9.862C248.064,150.416,251.405,153.556,251.405,159.137z
			 M236.562,158.677h13.124c0-4.261-2.461-6.842-6.082-6.842C239.523,151.836,237.042,154.516,236.562,158.677z"/>
		<path fill="#9BD5E1" d="M257.791,141.533v29.106h-1.9v-29.106H257.791z"/>
		<path fill="#9BD5E1" d="M263.57,177.681v-26.946h1.039c0.34,0,0.58,0.12,0.6,0.5l0.182,3.081c1.76-2.401,4.121-3.921,7.061-3.921
			c4.9,0,7.762,3.38,7.762,10.162c0,5.821-3.08,10.342-8.662,10.342c-2.721,0-4.641-1-6.08-2.941v9.722H263.57z M265.471,155.837
			v10.442c1.52,2.3,3.32,3.121,5.701,3.121c4.68,0,7.08-3.601,7.08-8.842c0-5.921-2.24-8.622-6.34-8.622
			C269.271,151.936,267.131,153.376,265.471,155.837z"/>
		<path fill="#9BD5E1" d="M294.109,150.736v12.723c0,3.741,1.68,5.981,5.18,5.981c2.582,0,4.861-1.4,6.643-3.741v-14.963h1.92
			v19.904h-1.061c-0.379,0-0.561-0.18-0.58-0.52l-0.18-2.961c-1.84,2.301-4.262,3.801-7.221,3.801c-4.402,0-6.623-2.881-6.623-7.502
			v-12.723H294.109z"/>
		<path fill="#9BD5E1" d="M324.143,153.196c-0.102,0.18-0.24,0.28-0.441,0.28c-0.6,0-1.74-1.621-4.92-1.621
			c-2.881,0-4.822,1.781-4.822,3.801c0,4.981,11.084,2.701,11.084,9.162c0,3.441-2.561,6.142-6.982,6.142
			c-2.801,0-4.74-0.98-6.342-2.421l0.461-0.68c0.141-0.22,0.26-0.32,0.561-0.32c0.699,0,1.84,2.021,5.4,2.021
			c3.361,0,5.121-2,5.121-4.421c0-5.321-11.102-2.781-11.102-9.342c0-2.84,2.52-5.381,6.58-5.381c2.422,0,4.242,0.68,5.822,2.12
			L324.143,153.196z"/>
		<path fill="#9BD5E1" d="M351.203,153.396c-0.141,0.14-0.221,0.24-0.441,0.24c-0.539,0-1.721-1.721-5.041-1.721
			c-4.561,0-7.16,3.381-7.16,8.762c0,5.581,2.719,8.722,6.9,8.722c3.842,0,5.002-2.161,5.602-2.161c0.18,0,0.301,0.06,0.4,0.2
			l0.52,0.64c-1.24,1.62-3.801,2.821-6.801,2.821c-5.041,0-8.562-3.761-8.562-10.222c0-6.062,3.262-10.262,9.002-10.262
			c2.58,0,4.582,0.88,6.082,2.3L351.203,153.396z"/>
		<path fill="#9BD5E1" d="M355.502,170.64v-19.904h1.002c0.459,0,0.639,0.16,0.66,0.62l0.16,4.201
			c1.279-3.221,3.379-5.161,6.5-5.161c1.201,0,2.201,0.26,3.102,0.74l-0.26,1.32c-0.041,0.22-0.182,0.32-0.4,0.32
			c-0.32,0-1.121-0.52-2.801-0.52c-3.021,0-4.861,1.92-6.062,5.441v12.943H355.502z"/>
		<path fill="#9BD5E1" d="M385.223,159.137c0,0.58-0.16,0.76-0.541,0.76h-14.383v0.38c0,5.981,2.881,9.102,7.361,9.102
			c4.021,0,5.762-2.141,6.281-2.141c0.18,0,0.301,0.06,0.4,0.2l0.52,0.64c-1.279,1.601-4.34,2.821-7.342,2.821
			c-5.461,0-9.102-3.861-9.102-10.623c0-5.701,3.32-9.862,8.982-9.862C381.881,150.416,385.223,153.556,385.223,159.137z
			 M370.379,158.677h13.123c0-4.261-2.461-6.842-6.082-6.842C373.34,151.836,370.859,154.516,370.379,158.677z"/>
		<path fill="#9BD5E1" d="M402.1,170.64c-0.4,0-0.639-0.18-0.74-0.56l-0.279-2.541c-2.201,2.141-4.182,3.421-7.461,3.421
			c-2.721,0-5.322-1.541-5.322-5.141c0-3.381,3.682-5.841,12.703-6.062v-2.081c0-3.681-1.6-5.741-4.721-5.741
			c-3.842,0-5.242,2.561-6.041,2.561c-0.26,0-0.461-0.12-0.602-0.36l-0.34-0.58c2.08-2.081,4.281-3.161,7.182-3.161
			c4.262,0,6.381,2.84,6.381,7.281v12.963H402.1z M401,166.219v-5.181c-7.582,0.22-10.863,1.9-10.863,4.701
			c0,2.68,1.881,3.841,3.961,3.841C397.238,169.58,399.119,168.139,401,166.219z"/>
		<path fill="#9BD5E1" d="M408.941,166.379v-13.603h-2.861c-0.299,0-0.5-0.16-0.5-0.46v-0.74l3.402-0.24l0.479-7.122
			c0.021-0.24,0.201-0.46,0.5-0.46h0.9v7.602h6.262v1.42h-6.262v13.503c0,2.18,1.201,3.121,2.74,3.121c1.9,0,2.762-1.34,3.141-1.34
			c0.102,0,0.221,0.06,0.32,0.2l0.521,0.84c-1.021,1.121-2.682,1.861-4.361,1.861C410.521,170.96,408.941,169.5,408.941,166.379z"/>
		<path fill="#9BD5E1" d="M435.934,159.137c0,0.58-0.16,0.76-0.541,0.76H421.01v0.38c0,5.981,2.881,9.102,7.361,9.102
			c4.021,0,5.762-2.141,6.281-2.141c0.18,0,0.301,0.06,0.4,0.2l0.52,0.64c-1.279,1.601-4.34,2.821-7.342,2.821
			c-5.461,0-9.102-3.861-9.102-10.623c0-5.701,3.32-9.862,8.982-9.862C432.592,150.416,435.934,153.556,435.934,159.137z
			 M421.09,158.677h13.123c0-4.261-2.461-6.842-6.082-6.842C424.051,151.836,421.57,154.516,421.09,158.677z"/>
		<path fill="#9BD5E1" d="M152.758,213.279v-11.462h-2.081c-0.54,0-0.98-0.34-0.98-1.04v-1.96l3.301-0.54l1.04-5.601
			c0.1-0.541,0.52-0.84,1.1-0.84h2.561v6.461h5.401v3.521h-5.401v11.123c0,1.28,0.7,2.041,1.761,2.041c1.22,0,1.58-0.68,2.08-0.68
			c0.3,0,0.44,0.14,0.66,0.44l1.48,2.4c-1.44,1.2-3.381,1.821-5.381,1.821C154.758,218.96,152.758,216.82,152.758,213.279z"/>
		<path fill="#9BD5E1" d="M166.221,218.64v-29.727h4.941v11.423c1.601-1.521,3.441-2.541,6.021-2.541
			c4.501,0,6.921,3.201,6.921,7.781v13.063h-4.941v-13.063c0-2.5-1.161-3.94-3.481-3.94c-1.7,0-3.181,0.82-4.521,2.16v14.843
			H166.221z"/>
		<path fill="#9BD5E1" d="M205.905,207.097c0,1.5-0.24,1.9-1.14,1.9h-12.683c0.3,4.221,2.361,6.122,5.622,6.122
			c3.221,0,4.461-1.801,5.681-1.801c0.4,0,0.68,0.16,0.9,0.46l1.44,1.8c-2.201,2.581-5.561,3.361-8.462,3.361
			c-5.681,0-10.102-3.821-10.102-11.002c0-5.602,3.721-10.142,9.862-10.142C202.204,197.796,205.905,201.176,205.905,207.097z
			 M192.182,206.017h9.282c0-2.561-1.38-4.681-4.341-4.681C194.242,201.336,192.642,203.036,192.182,206.017z"/>
		<path fill="#9BD5E1" d="M217.64,225.342v-27.226h3.021c0.64,0,1.12,0.28,1.26,0.9l0.4,1.9c1.66-1.9,3.741-3.181,6.621-3.181
			c4.481,0,7.582,3.781,7.582,10.482c0,6.142-3.44,10.723-8.822,10.723c-2.32,0-3.841-0.74-5.121-2v8.402H217.64z M222.581,204.117
			v9.202c1.12,1.38,2.44,1.86,3.961,1.86c3,0,4.881-2.22,4.881-6.961c0-4.781-1.58-6.581-4.181-6.581
			C225.182,201.636,223.841,202.536,222.581,204.117z"/>
		<path fill="#9BD5E1" d="M257.461,207.097c0,1.5-0.24,1.9-1.141,1.9h-12.684c0.3,4.221,2.361,6.122,5.621,6.122
			c3.221,0,4.461-1.801,5.682-1.801c0.4,0,0.68,0.16,0.9,0.46l1.439,1.8c-2.199,2.581-5.561,3.361-8.461,3.361
			c-5.682,0-10.103-3.821-10.103-11.002c0-5.602,3.721-10.142,9.862-10.142C253.76,197.796,257.461,201.176,257.461,207.097z
			 M243.737,206.017h9.283c0-2.561-1.381-4.681-4.342-4.681C245.797,201.336,244.197,203.036,243.737,206.017z"/>
		<path fill="#9BD5E1" d="M260.908,218.64v-20.524h2.9c1.02,0,1.32,0.34,1.459,1.24l0.301,2.48c1.461-2.541,3.441-4.101,5.9-4.101
			c1.021,0,1.861,0.24,2.521,0.7l-0.641,3.701c-0.08,0.48-0.34,0.66-0.799,0.66c-0.4,0-1.061-0.28-2.201-0.28
			c-2.061,0-3.48,1.16-4.502,3.341v12.783H260.908z"/>
		<path fill="#9BD5E1" d="M278.516,218.64v-16.804l-1.781-0.28c-0.779-0.14-1.279-0.52-1.279-1.24v-2.021h3.061v-1.521
			c0-4.701,2.92-7.562,7.662-7.562c0.939,0,1.82,0.12,2.641,0.38l-0.102,2.481c-0.059,0.78-0.82,0.86-1.699,0.86
			c-2.342,0-3.721,0.94-3.721,4.001v1.36h5.34v3.521h-5.18v16.824H278.516z"/>
		<path fill="#9BD5E1" d="M308.334,207.097c0,1.5-0.238,1.9-1.139,1.9h-12.684c0.301,4.221,2.361,6.122,5.621,6.122
			c3.221,0,4.461-1.801,5.682-1.801c0.4,0,0.68,0.16,0.9,0.46l1.439,1.8c-2.199,2.581-5.561,3.361-8.461,3.361
			c-5.682,0-10.102-3.821-10.102-11.002c0-5.602,3.721-10.142,9.861-10.142C304.635,197.796,308.334,201.176,308.334,207.097z
			 M294.611,206.017h9.283c0-2.561-1.381-4.681-4.342-4.681C296.672,201.336,295.072,203.036,294.611,206.017z"/>
		<path fill="#9BD5E1" d="M326.365,202.456c-0.301,0.38-0.5,0.6-1.041,0.6c-1,0-1.779-1.5-4.5-1.5c-3.48,0-5.201,2.581-5.201,6.781
			c0,4.401,1.939,6.841,5.08,6.841s3.621-1.86,4.842-1.86c0.4,0,0.699,0.16,0.9,0.46l1.42,1.8c-2.201,2.581-5.16,3.361-8.082,3.361
			c-5.061,0-9.221-3.881-9.221-10.603c0-6.021,3.5-10.542,9.961-10.542c3.061,0,5.301,1.02,7.143,2.86L326.365,202.456z"/>
		<path fill="#9BD5E1" d="M332.41,213.279v-11.462h-2.08c-0.541,0-0.98-0.34-0.98-1.04v-1.96l3.301-0.54l1.039-5.601
			c0.1-0.541,0.521-0.84,1.102-0.84h2.561v6.461h5.4v3.521h-5.4v11.123c0,1.28,0.699,2.041,1.76,2.041c1.221,0,1.58-0.68,2.08-0.68
			c0.301,0,0.439,0.14,0.66,0.44l1.48,2.4c-1.439,1.2-3.381,1.821-5.381,1.821C334.41,218.96,332.41,216.82,332.41,213.279z"/>
		<path fill="#9BD5E1" d="M359.67,188.913v29.727h-4.939v-29.727H359.67z"/>
		<path fill="#9BD5E1" d="M380.271,218.64h-2.219c-0.941,0-1.441-0.2-1.701-1.06l-0.439-1.46c-2.082,1.86-3.861,2.841-6.781,2.841
			c-3.482,0-5.963-1.881-5.963-5.562c0-3.081,2.941-6.301,12.283-6.521v-1.2c0-2.74-1.18-4.041-3.4-4.041
			c-3.221,0-3.961,1.82-5.582,1.82c-0.66,0-1.139-0.4-1.439-0.9l-0.9-1.58c2.361-2.161,5.201-3.241,8.541-3.241
			c4.803,0,7.602,3.301,7.602,7.941V218.64z M375.451,213.339v-3.46c-5.762,0.26-7.561,1.48-7.561,3.261
			c0,1.74,1.119,2.42,2.779,2.42C372.691,215.559,374.031,214.819,375.451,213.339z"/>
		<path fill="#9BD5E1" d="M384.605,218.64v-20.524h3.02c0.641,0,1.061,0.3,1.262,0.9l0.318,1.52c1.441-1.58,3.102-2.74,5.521-2.74
			c2.582,0,4.242,1.52,5.062,3.841c1.279-2.721,3.939-3.841,6.561-3.841c4.541,0,7.082,2.84,7.082,7.781v13.063h-4.941v-13.063
			c0-2.621-1.16-3.94-3.381-3.94c-2,0-3.602,1.38-3.602,3.94v13.063h-4.961v-13.063c0-2.74-1.119-3.94-3.279-3.94
			c-1.422,0-2.662,0.76-3.721,1.98v15.023H384.605z"/>
		<path fill="#9BD5E1" d="M417.828,225.342v-27.226h3.021c0.641,0,1.119,0.28,1.26,0.9l0.4,1.9c1.66-1.9,3.74-3.181,6.621-3.181
			c4.48,0,7.582,3.781,7.582,10.482c0,6.142-3.441,10.723-8.822,10.723c-2.32,0-3.84-0.74-5.121-2v8.402H417.828z M422.77,204.117
			v9.202c1.121,1.38,2.441,1.86,3.961,1.86c3,0,4.881-2.22,4.881-6.961c0-4.781-1.58-6.581-4.182-6.581
			C425.371,201.636,424.029,202.536,422.77,204.117z"/>
		<path fill="#9BD5E1" d="M86.446,266.64v-17.824l-2.801-0.18c-0.38-0.02-0.58-0.2-0.58-0.5v-0.78h3.381v-2.521
			c0-4.561,2.46-6.861,6.101-6.861c0.82,0,1.721,0.16,2.361,0.42l-0.06,0.92c-0.02,0.18-0.14,0.28-0.38,0.28
			c-0.32,0-0.86-0.12-1.66-0.12c-2.641,0-4.501,1.44-4.501,5.421v2.46h6.461v1.42h-6.421v17.864H86.446z"/>
		<path fill="#9BD5E1" d="M114.353,256.678c0,6.221-3.341,10.222-9.062,10.222s-9.082-4.001-9.082-10.222
			c0-6.222,3.361-10.262,9.082-10.262S114.353,250.456,114.353,256.678z M112.393,256.678c0-5.301-2.36-8.762-7.102-8.762
			c-4.721,0-7.122,3.461-7.122,8.762c0,5.341,2.4,8.722,7.122,8.722C110.032,265.4,112.393,262.019,112.393,256.678z"/>
		<path fill="#9BD5E1" d="M118.745,266.64v-19.904h1c0.46,0,0.64,0.16,0.66,0.62l0.16,4.201c1.28-3.221,3.381-5.161,6.501-5.161
			c1.2,0,2.2,0.26,3.101,0.74l-0.26,1.32c-0.04,0.22-0.18,0.32-0.4,0.32c-0.32,0-1.12-0.52-2.801-0.52
			c-3.021,0-4.861,1.92-6.061,5.441v12.943H118.745z"/>
		<path fill="#9BD5E1" d="M146.685,273.041c-0.16,0.38-0.38,0.64-0.86,0.64h-1.36l3.5-7.782l-8.422-19.164h1.581
			c0.4,0,0.62,0.24,0.72,0.48l6.701,15.483c0.16,0.4,0.28,0.82,0.38,1.24c0.14-0.42,0.28-0.84,0.44-1.24l6.622-15.483
			c0.14-0.3,0.38-0.48,0.68-0.48h1.46L146.685,273.041z"/>
		<path fill="#9BD5E1" d="M177.36,256.678c0,6.221-3.341,10.222-9.062,10.222s-9.082-4.001-9.082-10.222
			c0-6.222,3.361-10.262,9.082-10.262S177.36,250.456,177.36,256.678z M175.399,256.678c0-5.301-2.36-8.762-7.102-8.762
			c-4.721,0-7.122,3.461-7.122,8.762c0,5.341,2.4,8.722,7.122,8.722C173.039,265.4,175.399,262.019,175.399,256.678z"/>
		<path fill="#9BD5E1" d="M183.308,246.736v12.723c0,3.741,1.68,5.981,5.181,5.981c2.581,0,4.861-1.4,6.641-3.741v-14.963h1.92
			v19.904h-1.06c-0.38,0-0.56-0.18-0.58-0.52l-0.18-2.961c-1.84,2.301-4.261,3.801-7.222,3.801c-4.401,0-6.621-2.881-6.621-7.502
			v-12.723H183.308z"/>
		<path fill="#9BD5E1" d="M223.95,266.64c-0.4,0-0.64-0.18-0.74-0.56l-0.28-2.541c-2.201,2.141-4.181,3.421-7.462,3.421
			c-2.72,0-5.321-1.541-5.321-5.141c0-3.381,3.681-5.841,12.703-6.062v-2.081c0-3.681-1.601-5.741-4.721-5.741
			c-3.841,0-5.241,2.561-6.041,2.561c-0.26,0-0.46-0.12-0.6-0.36l-0.34-0.58c2.081-2.081,4.281-3.161,7.182-3.161
			c4.261,0,6.381,2.84,6.381,7.281v12.963H223.95z M222.85,262.219v-5.181c-7.582,0.22-10.862,1.9-10.862,4.701
			c0,2.68,1.88,3.841,3.961,3.841C219.089,265.58,220.969,264.139,222.85,262.219z"/>
		<path fill="#9BD5E1" d="M230.003,266.64v-19.904h1.04c0.34,0,0.54,0.16,0.6,0.5l0.18,3.001c1.82-2.301,4.241-3.821,7.202-3.821
			c4.401,0,6.621,2.88,6.621,7.501v12.723h-1.9v-12.723c0-3.741-1.68-5.981-5.201-5.981c-2.621,0-4.881,1.44-6.642,3.781v14.923
			H230.003z"/>
		<path fill="#9BD5E1" d="M265.346,266.64c-0.34,0-0.52-0.18-0.58-0.52l-0.201-3.141c-1.76,2.4-4.119,3.921-7.061,3.921
			c-4.881,0-7.762-3.381-7.762-10.163c0-5.821,3.1-10.342,8.682-10.342c2.701,0,4.621,1.02,6.061,2.94v-11.803h1.922v29.106H265.346
			z M264.484,261.499v-10.502c-1.539-2.26-3.359-3.101-5.701-3.101c-4.68,0-7.081,3.601-7.081,8.842
			c0,5.921,2.261,8.622,6.341,8.622C260.684,265.36,262.805,263.919,264.484,261.499z"/>
		<path fill="#9BD5E1" d="M285.143,273.041c-0.16,0.38-0.381,0.64-0.861,0.64h-1.359l3.5-7.782L278,246.736h1.582
			c0.398,0,0.619,0.24,0.719,0.48l6.701,15.483c0.16,0.4,0.281,0.82,0.381,1.24c0.141-0.42,0.279-0.84,0.439-1.24l6.621-15.483
			c0.141-0.3,0.381-0.48,0.682-0.48h1.459L285.143,273.041z"/>
		<path fill="#9BD5E1" d="M315.816,256.678c0,6.221-3.34,10.222-9.061,10.222s-9.082-4.001-9.082-10.222
			c0-6.222,3.361-10.262,9.082-10.262S315.816,250.456,315.816,256.678z M313.857,256.678c0-5.301-2.361-8.762-7.102-8.762
			c-4.721,0-7.121,3.461-7.121,8.762c0,5.341,2.4,8.722,7.121,8.722C311.496,265.4,313.857,262.019,313.857,256.678z"/>
		<path fill="#9BD5E1" d="M321.766,246.736v12.723c0,3.741,1.68,5.981,5.18,5.981c2.582,0,4.861-1.4,6.643-3.741v-14.963h1.92
			v19.904h-1.061c-0.379,0-0.561-0.18-0.58-0.52l-0.18-2.961c-1.84,2.301-4.262,3.801-7.221,3.801c-4.402,0-6.623-2.881-6.623-7.502
			v-12.723H321.766z"/>
		<path fill="#9BD5E1" d="M341.072,266.64v-19.904h1c0.461,0,0.641,0.16,0.66,0.62l0.16,4.201c1.281-3.221,3.381-5.161,6.502-5.161
			c1.199,0,2.199,0.26,3.1,0.74l-0.26,1.32c-0.039,0.22-0.18,0.32-0.4,0.32c-0.32,0-1.119-0.52-2.801-0.52
			c-3.02,0-4.859,1.92-6.061,5.441v12.943H341.072z"/>
		<path fill="#9BD5E1" d="M377.775,249.396c-0.141,0.14-0.221,0.24-0.441,0.24c-0.539,0-1.721-1.721-5.041-1.721
			c-4.561,0-7.16,3.381-7.16,8.762c0,5.581,2.719,8.722,6.9,8.722c3.842,0,5.002-2.161,5.602-2.161c0.18,0,0.301,0.06,0.4,0.2
			l0.52,0.64c-1.24,1.62-3.801,2.821-6.801,2.821c-5.041,0-8.562-3.761-8.562-10.222c0-6.062,3.262-10.262,9.002-10.262
			c2.58,0,4.582,0.88,6.082,2.3L377.775,249.396z"/>
		<path fill="#9BD5E1" d="M382.074,266.64v-29.106h1.9v12.603c1.842-2.261,4.182-3.721,7.123-3.721c4.4,0,6.621,2.88,6.621,7.501
			v12.723h-1.9v-12.723c0-3.741-1.68-5.981-5.201-5.981c-2.621,0-4.881,1.44-6.643,3.781v14.923H382.074z"/>
		<path fill="#9BD5E1" d="M404.162,241.615c-0.959,0-1.76-0.8-1.76-1.74c0-0.98,0.801-1.78,1.76-1.78c0.941,0,1.781,0.8,1.781,1.78
			C405.943,240.814,405.104,241.615,404.162,241.615z M405.104,246.736v19.904h-1.9v-19.904H405.104z"/>
		<path fill="#9BD5E1" d="M413.062,237.533v29.106h-1.9v-29.106H413.062z"/>
		<path fill="#9BD5E1" d="M433.312,266.64c-0.34,0-0.521-0.18-0.58-0.52l-0.201-3.141c-1.76,2.4-4.121,3.921-7.061,3.921
			c-4.881,0-7.762-3.381-7.762-10.163c0-5.821,3.1-10.342,8.682-10.342c2.701,0,4.621,1.02,6.061,2.94v-11.803h1.922v29.106H433.312
			z M432.451,261.499v-10.502c-1.539-2.26-3.359-3.101-5.701-3.101c-4.68,0-7.08,3.601-7.08,8.842c0,5.921,2.26,8.622,6.34,8.622
			C428.65,265.36,430.771,263.919,432.451,261.499z"/>
	</g>
	<polygon fill="#FFE394" points="38.966,428.348 491.246,425.462 491.246,372.848 54.355,372.848 	"/>
	<polygon fill="#FDCE6D" points="47.373,325.384 54.271,373.264 490.973,373.264 490.973,325.384 	"/>
	<g>
		<path fill="#FFFFFF" d="M148.962,360.688l1.802,1.955c-1.989,2.465-4.844,3.824-8.924,3.824c-7.275,0-11.848-5.252-11.848-12.562
			c0-7.377,5.134-12.561,12.613-12.561c3.655,0,6.34,1.273,8.295,3.195l-1.53,2.125c-0.187,0.271-0.442,0.51-0.935,0.51
			c-1.037,0-1.904-1.938-5.864-1.938c-4.624,0-7.904,3.314-7.904,8.668c0,5.508,3.314,8.688,7.462,8.688
			c2.482,0,3.944-0.494,5.423-1.854c0.221-0.205,0.476-0.34,0.765-0.34C148.571,360.399,148.775,360.501,148.962,360.688z"/>
		<path fill="#FFFFFF" d="M161.968,356.591v9.605h-4.573v-24.58h7.496c6.714,0,9.468,2.906,9.468,7.07
			c0,3.332-1.972,5.934-5.422,7.021c0.578,0.322,1.071,0.799,1.496,1.41l6.153,9.078h-4.113c-0.799,0-1.326-0.324-1.717-0.918
			l-5.167-7.871c-0.391-0.594-0.765-0.816-1.666-0.816H161.968z M161.968,353.311h2.855c3.468,0,5.065-1.803,5.065-4.285
			c0-2.498-1.615-3.875-4.998-3.875h-2.923V353.311z"/>
		<path fill="#FFFFFF" d="M198.041,341.616v3.637h-10.896v6.816h8.584v3.52h-8.584v6.951h10.896v3.656h-15.502v-24.58H198.041z"/>
		<path fill="#FFFFFF" d="M226.634,366.196h-3.536c-0.799,0-1.309-0.443-1.53-1.037l-1.836-5.016h-10.182l-1.836,5.016
			c-0.187,0.527-0.748,1.037-1.513,1.037h-3.553l9.655-24.58h4.675L226.634,366.196z M210.724,356.915h7.836l-2.992-8.176
			c-0.272-0.732-0.612-1.734-0.935-2.891c-0.323,1.156-0.629,2.176-0.918,2.924L210.724,356.915z"/>
		<path fill="#FFFFFF" d="M247.018,341.616v3.756h-7.395v20.824h-4.572v-20.824h-7.428v-3.756H247.018z"/>
		<path fill="#FFFFFF" d="M258.104,366.196h-4.59v-24.58h4.59V366.196z"/>
		<path fill="#FFFFFF" d="M264.24,341.616h3.689c0.799,0,1.273,0.424,1.529,1.037l5.779,14.992c0.391,0.969,0.73,2.158,1.053,3.451
			c0.256-1.309,0.578-2.449,0.971-3.451l5.762-14.992c0.203-0.527,0.748-1.037,1.512-1.037h3.689l-9.928,24.58h-4.129
			L264.24,341.616z"/>
		<path fill="#FFFFFF" d="M309.322,341.616v3.637h-10.896v6.816h8.584v3.52h-8.584v6.951h10.896v3.656h-15.504v-24.58H309.322z"/>
		<path fill="#FFFFFF" d="M317.652,361.317c1.717,0,2.551,1.326,2.551,2.873c0,2.176-1.344,4.93-3.74,6.832l-0.73-0.662
			c-0.203-0.17-0.307-0.375-0.307-0.629c0-0.188,0.137-0.426,0.324-0.611c0.492-0.545,1.562-1.615,1.836-2.975
			c-1.412,0-2.398-1.105-2.398-2.533C315.188,362.337,316.191,361.317,317.652,361.317z"/>
		<path fill="#FFFFFF" d="M349.748,346.087c-0.256,0.492-0.561,0.68-1.02,0.68c-0.918,0-2.143-1.699-4.947-1.699
			c-2.516,0-3.807,1.273-3.807,3.094c0,4.656,11.338,2.158,11.338,10.334c0,4.438-3.111,7.973-8.533,7.973
			c-3.129,0-6.172-1.275-8.074-3.23l1.324-2.191c0.256-0.324,0.613-0.562,1.037-0.562c1.139,0,2.465,2.244,5.848,2.244
			c2.602,0,4.098-1.275,4.098-3.586c0-5.201-11.322-1.752-11.322-10.744c0-3.604,2.924-7.053,8.041-7.053
			c2.906,0,5.422,0.951,7.139,2.584L349.748,346.087z"/>
		<path fill="#FFFFFF" d="M379.445,366.196h-3.535c-0.799,0-1.309-0.443-1.529-1.037l-1.836-5.016h-10.184l-1.836,5.016
			c-0.186,0.527-0.746,1.037-1.512,1.037h-3.553l9.654-24.58h4.676L379.445,366.196z M363.535,356.915h7.836l-2.992-8.176
			c-0.271-0.732-0.611-1.734-0.934-2.891c-0.324,1.156-0.629,2.176-0.918,2.924L363.535,356.915z"/>
		<path fill="#FFFFFF" d="M400.51,341.616v3.637h-10.896v7.275h9.195v3.654h-9.195v10.014h-4.607v-24.58H400.51z"/>
		<path fill="#FFFFFF" d="M422.625,341.616v3.637h-10.896v6.816h8.586v3.52h-8.586v6.951h10.896v3.656h-15.502v-24.58H422.625z"/>
		<path fill="#FFFFFF" d="M430.957,361.317c1.717,0,2.549,1.326,2.549,2.873c0,2.176-1.342,4.93-3.738,6.832l-0.732-0.662
			c-0.203-0.17-0.305-0.375-0.305-0.629c0-0.188,0.135-0.426,0.322-0.611c0.494-0.545,1.564-1.615,1.836-2.975
			c-1.41,0-2.396-1.105-2.396-2.533C428.492,362.337,429.494,361.317,430.957,361.317z"/>
		<path fill="#FFFFFF" d="M117.276,382.634v2.688H105.58v8.516h9.996v2.686h-9.996v10.473h-3.315v-24.361H117.276z"/>
		<path fill="#FFFFFF" d="M134.003,404.378c1.009,0,1.91-0.17,2.703-0.51s1.465-0.816,2.015-1.43
			c0.549-0.611,0.969-1.342,1.258-2.191c0.289-0.852,0.434-1.785,0.434-2.807v-14.807h3.281v14.807c0,1.406-0.224,2.709-0.672,3.91
			c-0.448,1.203-1.088,2.242-1.921,3.121c-0.833,0.877-1.85,1.566-3.051,2.064c-1.202,0.498-2.55,0.748-4.046,0.748
			c-1.496,0-2.845-0.25-4.046-0.748s-2.221-1.188-3.06-2.064c-0.839-0.879-1.482-1.918-1.929-3.121
			c-0.448-1.201-0.671-2.504-0.671-3.91v-14.807h3.281v14.791c0,1.02,0.145,1.955,0.434,2.805s0.708,1.58,1.258,2.193
			c0.55,0.611,1.224,1.09,2.023,1.436C132.091,404.204,132.995,404.378,134.003,404.378z"/>
		<path fill="#FFFFFF" d="M154.735,382.745c0.142,0.074,0.303,0.225,0.484,0.451l14.11,18.359c-0.034-0.295-0.057-0.58-0.068-0.859
			c-0.011-0.277-0.017-0.547-0.017-0.807v-17.256h2.89v24.361h-1.666c-0.261,0-0.479-0.045-0.654-0.137
			c-0.176-0.09-0.349-0.242-0.519-0.459l-14.093-18.342c0.023,0.283,0.04,0.561,0.051,0.832c0.011,0.273,0.017,0.521,0.017,0.748
			v17.357h-2.89v-24.361h1.7C154.375,382.634,154.593,382.671,154.735,382.745z"/>
		<path fill="#FFFFFF" d="M210.741,406.995h-2.55c-0.295,0-0.533-0.074-0.714-0.221s-0.317-0.334-0.408-0.561l-2.278-5.883H193.86
			l-2.278,5.883c-0.079,0.203-0.215,0.385-0.408,0.543c-0.193,0.16-0.431,0.238-0.714,0.238h-2.55l9.741-24.361H201L210.741,406.995
			z M194.778,397.952h9.095l-3.825-9.912c-0.25-0.611-0.493-1.377-0.731-2.295c-0.125,0.465-0.247,0.893-0.366,1.283
			s-0.235,0.734-0.349,1.029L194.778,397.952z"/>
		<path fill="#FFFFFF" d="M219.198,382.745c0.142,0.074,0.303,0.225,0.484,0.451l14.11,18.359c-0.034-0.295-0.057-0.58-0.068-0.859
			c-0.011-0.277-0.017-0.547-0.017-0.807v-17.256h2.89v24.361h-1.666c-0.261,0-0.479-0.045-0.654-0.137
			c-0.176-0.09-0.349-0.242-0.519-0.459l-14.093-18.342c0.023,0.283,0.04,0.561,0.051,0.832c0.011,0.273,0.017,0.521,0.017,0.748
			v17.357h-2.89v-24.361h1.7C218.838,382.634,219.057,382.671,219.198,382.745z"/>
		<path fill="#FFFFFF" d="M266.688,394.823c0,1.824-0.289,3.484-0.867,4.98s-1.393,2.777-2.447,3.842
			c-1.055,1.066-2.318,1.891-3.791,2.475s-3.105,0.875-4.896,0.875h-9.112v-24.361h9.112c1.791,0,3.424,0.293,4.896,0.877
			c1.473,0.582,2.736,1.41,3.791,2.48c1.055,1.072,1.869,2.355,2.447,3.852S266.688,392.999,266.688,394.823z M263.305,394.823
			c0-1.496-0.203-2.834-0.611-4.012c-0.408-1.18-0.986-2.176-1.734-2.992s-1.654-1.439-2.721-1.869
			c-1.064-0.432-2.25-0.646-3.553-0.646h-5.797v19.023h5.797c1.303,0,2.488-0.217,3.553-0.646c1.066-0.432,1.973-1.051,2.721-1.861
			s1.326-1.805,1.734-2.984C263.102,397.657,263.305,396.319,263.305,394.823z"/>
		<path fill="#FFFFFF" d="M293.258,404.378c1.008,0,1.91-0.17,2.703-0.51s1.465-0.816,2.014-1.43
			c0.551-0.611,0.969-1.342,1.258-2.191c0.289-0.852,0.434-1.785,0.434-2.807v-14.807h3.281v14.807c0,1.406-0.223,2.709-0.672,3.91
			c-0.447,1.203-1.088,2.242-1.92,3.121c-0.834,0.877-1.852,1.566-3.053,2.064s-2.549,0.748-4.045,0.748s-2.846-0.25-4.047-0.748
			s-2.221-1.188-3.059-2.064c-0.84-0.879-1.482-1.918-1.93-3.121c-0.449-1.201-0.672-2.504-0.672-3.91v-14.807h3.281v14.791
			c0,1.02,0.145,1.955,0.434,2.805s0.707,1.58,1.258,2.193c0.549,0.611,1.223,1.09,2.023,1.436
			C291.346,404.204,292.248,404.378,293.258,404.378z"/>
		<path fill="#FFFFFF" d="M324.113,386.442c-0.102,0.17-0.209,0.297-0.322,0.383c-0.113,0.084-0.262,0.127-0.443,0.127
			c-0.191,0-0.416-0.096-0.672-0.289c-0.254-0.191-0.576-0.404-0.969-0.637c-0.391-0.232-0.861-0.445-1.41-0.639
			c-0.551-0.191-1.215-0.289-1.998-0.289c-0.736,0-1.389,0.1-1.955,0.299c-0.566,0.197-1.039,0.467-1.42,0.807
			c-0.379,0.34-0.664,0.74-0.857,1.199s-0.289,0.955-0.289,1.486c0,0.682,0.166,1.244,0.502,1.691
			c0.334,0.449,0.775,0.832,1.326,1.148c0.549,0.316,1.172,0.592,1.869,0.824s1.412,0.473,2.143,0.723s1.445,0.529,2.141,0.842
			c0.697,0.312,1.32,0.705,1.871,1.182c0.549,0.475,0.992,1.059,1.326,1.75s0.502,1.541,0.502,2.551c0,1.064-0.182,2.064-0.545,3
			s-0.893,1.748-1.59,2.439s-1.553,1.236-2.566,1.633s-2.168,0.594-3.459,0.594c-1.576,0-3.012-0.285-4.311-0.857
			c-1.297-0.572-2.404-1.346-3.322-2.32l0.951-1.564c0.09-0.125,0.201-0.23,0.332-0.314c0.129-0.086,0.273-0.127,0.434-0.127
			c0.238,0,0.51,0.127,0.814,0.383c0.307,0.254,0.689,0.535,1.148,0.84c0.459,0.307,1.014,0.588,1.666,0.842
			c0.652,0.256,1.447,0.383,2.389,0.383c0.781,0,1.479-0.107,2.09-0.322c0.613-0.215,1.131-0.52,1.557-0.91s0.75-0.859,0.977-1.402
			c0.227-0.545,0.34-1.15,0.34-1.818c0-0.738-0.166-1.342-0.5-1.811c-0.336-0.471-0.773-0.865-1.318-1.182
			c-0.543-0.318-1.164-0.588-1.861-0.809s-1.41-0.447-2.143-0.68c-0.73-0.232-1.443-0.502-2.141-0.807
			c-0.697-0.307-1.318-0.703-1.861-1.191c-0.545-0.486-0.984-1.096-1.318-1.826c-0.334-0.732-0.502-1.635-0.502-2.713
			c0-0.861,0.168-1.693,0.502-2.498s0.818-1.52,1.453-2.143s1.42-1.121,2.355-1.496c0.934-0.373,2.008-0.561,3.221-0.561
			c1.359,0,2.602,0.215,3.723,0.646c1.123,0.43,2.104,1.053,2.941,1.869L324.113,386.442z"/>
		<path fill="#FFFFFF" d="M347.691,382.634v2.688h-11.695v8.092h9.469v2.584h-9.469v8.312h11.695v2.686h-15.01v-24.361H347.691z"/>
		<path fill="#FFFFFF" d="M370.471,382.634v2.688h-11.695v8.516h9.996v2.686h-9.996v10.473h-3.314v-24.361H370.471z"/>
		<path fill="#FFFFFF" d="M387.199,404.378c1.008,0,1.91-0.17,2.703-0.51s1.465-0.816,2.014-1.43
			c0.551-0.611,0.969-1.342,1.258-2.191c0.289-0.852,0.434-1.785,0.434-2.807v-14.807h3.281v14.807c0,1.406-0.223,2.709-0.672,3.91
			c-0.447,1.203-1.088,2.242-1.92,3.121c-0.834,0.877-1.852,1.566-3.053,2.064s-2.549,0.748-4.045,0.748s-2.846-0.25-4.047-0.748
			s-2.221-1.188-3.059-2.064c-0.84-0.879-1.482-1.918-1.93-3.121c-0.449-1.201-0.672-2.504-0.672-3.91v-14.807h3.281v14.791
			c0,1.02,0.145,1.955,0.434,2.805s0.707,1.58,1.258,2.193c0.549,0.611,1.223,1.09,2.023,1.436
			C385.287,404.204,386.189,404.378,387.199,404.378z"/>
		<path fill="#FFFFFF" d="M408.875,404.223h10.539v2.771h-13.838v-24.361h3.299V404.223z"/>
		<path fill="#FFFFFF" d="M426.826,405.126c0-0.295,0.053-0.572,0.16-0.834c0.107-0.26,0.256-0.486,0.443-0.68
			c0.186-0.193,0.41-0.346,0.672-0.459c0.26-0.113,0.537-0.17,0.832-0.17s0.572,0.057,0.834,0.17c0.26,0.113,0.486,0.266,0.68,0.459
			c0.191,0.193,0.342,0.42,0.449,0.68c0.107,0.262,0.162,0.539,0.162,0.834c0,0.305-0.055,0.586-0.162,0.842
			c-0.107,0.254-0.258,0.479-0.449,0.67c-0.193,0.193-0.42,0.344-0.68,0.451c-0.262,0.107-0.539,0.162-0.834,0.162
			s-0.572-0.055-0.832-0.162c-0.262-0.107-0.486-0.258-0.672-0.451c-0.188-0.191-0.336-0.416-0.443-0.67
			C426.879,405.712,426.826,405.43,426.826,405.126z M430.43,382.634v9.725c0,0.51-0.008,1.01-0.025,1.496s-0.043,0.977-0.076,1.471
			c-0.035,0.492-0.076,0.998-0.129,1.512c-0.051,0.518-0.109,1.068-0.178,1.658h-2.057c-0.068-0.59-0.127-1.141-0.18-1.658
			c-0.051-0.514-0.092-1.02-0.127-1.512c-0.033-0.494-0.059-0.984-0.076-1.471s-0.025-0.986-0.025-1.496v-9.725H430.43z"/>
	</g>
</g>
</svg>
