<?xml version="1.0" encoding="utf-8"?>
<!-- Generator: Adobe Illustrator 15.0.2, SVG Export Plug-In . SVG Version: 6.00 Build 0)  -->
<!DOCTYPE svg PUBLIC "-//W3C//DTD SVG 1.1//EN" "http://www.w3.org/Graphics/SVG/1.1/DTD/svg11.dtd">
<svg version="1.1" id="Layer_1" xmlns="http://www.w3.org/2000/svg" xmlns:xlink="http://www.w3.org/1999/xlink" x="0px" y="0px"
	 width="490.602px" height="569.38px" viewBox="0 0 490.602 569.38" enable-background="new 0 0 490.602 569.38"
	 xml:space="preserve">
<polygon fill="#FFFFFF" points="490,569.171 0,569.38 54.584,373.019 0.187,0 490.602,0 "/>
<g>
	<path fill="#9BD5E1" d="M167.806,473.712h2.035c0.423,0,0.711,0.216,0.811,0.549l2.214,7.787c0.108,0.387,0.198,0.838,0.279,1.342
		c0.099-0.504,0.207-0.955,0.342-1.342l2.557-7.787c0.099-0.279,0.396-0.549,0.801-0.549h0.711c0.423,0,0.702,0.216,0.81,0.549
		l2.539,7.787c0.135,0.387,0.243,0.811,0.342,1.279c0.081-0.469,0.171-0.91,0.271-1.279l2.214-7.787
		c0.081-0.297,0.396-0.549,0.801-0.549h1.899l-4.042,13.018h-2.188l-2.845-8.895c-0.072-0.225-0.153-0.495-0.225-0.793
		c-0.072,0.298-0.153,0.568-0.225,0.793l-2.872,8.895h-2.188L167.806,473.712z"/>
	<path fill="#9BD5E1" d="M197.41,473.712v1.926h-5.771v3.61h4.546v1.864h-4.546v3.682h5.771v1.936h-8.21v-13.018H197.41z"/>
	<path fill="#9BD5E1" d="M217.12,486.729h-1.873c-0.423,0-0.693-0.234-0.81-0.549l-0.973-2.656h-5.393l-0.972,2.656
		c-0.099,0.279-0.396,0.549-0.801,0.549h-1.881l5.113-13.018h2.476L217.12,486.729z M208.693,481.813h4.15l-1.584-4.33
		c-0.144-0.387-0.324-0.918-0.495-1.53c-0.171,0.612-0.333,1.152-0.486,1.549L208.693,481.813z"/>
	<path fill="#9BD5E1" d="M222.31,481.644v5.086h-2.421v-13.018h3.97c3.556,0,5.014,1.539,5.014,3.744
		c0,1.766-1.044,3.143-2.872,3.719c0.306,0.171,0.567,0.424,0.792,0.747l3.259,4.808h-2.179c-0.423,0-0.702-0.171-0.909-0.486
		l-2.737-4.168c-0.207-0.315-0.405-0.432-0.882-0.432H222.31z M222.31,479.905h1.513c1.836,0,2.683-0.954,2.683-2.269
		c0-1.323-0.855-2.053-2.646-2.053h-1.549V479.905z"/>
	<path fill="#9BD5E1" d="M241.158,473.712v1.926h-5.771v3.61h4.546v1.864h-4.546v3.682h5.771v1.936h-8.21v-13.018H241.158z"/>
	<path fill="#9BD5E1" d="M258.717,483.812l0.955,1.036c-1.054,1.305-2.566,2.025-4.727,2.025c-3.854,0-6.275-2.782-6.275-6.653
		c0-3.907,2.719-6.653,6.68-6.653c1.936,0,3.358,0.676,4.394,1.693l-0.81,1.125c-0.1,0.144-0.234,0.27-0.496,0.27
		c-0.549,0-1.008-1.025-3.105-1.025c-2.449,0-4.187,1.755-4.187,4.591c0,2.917,1.756,4.601,3.952,4.601
		c1.314,0,2.089-0.262,2.872-0.981c0.117-0.108,0.252-0.181,0.405-0.181C258.51,483.659,258.618,483.714,258.717,483.812z"/>
	<path fill="#9BD5E1" d="M268.742,486.874c-3.943,0-6.608-2.827-6.608-6.653s2.665-6.653,6.608-6.653c3.934,0,6.59,2.836,6.59,6.653
		C275.332,484.047,272.676,486.874,268.742,486.874z M268.742,475.63c-2.548,0-4.133,1.736-4.133,4.591
		c0,2.854,1.585,4.582,4.133,4.582c2.547,0,4.105-1.729,4.105-4.582C272.848,477.366,271.289,475.63,268.742,475.63z"/>
	<path fill="#9BD5E1" d="M285.662,482.552c0.172-0.432,0.342-0.855,0.549-1.242l3.854-7.211c0.198-0.369,0.387-0.387,0.811-0.387
		h1.828v13.018h-2.135v-8.408c0-0.315,0.019-0.693,0.055-1.08l-3.934,7.382c-0.181,0.333-0.469,0.53-0.855,0.53H285.5
		c-0.387,0-0.675-0.197-0.855-0.53l-3.988-7.409c0.046,0.396,0.064,0.783,0.064,1.107v8.408h-2.135v-13.018h1.828
		c0.423,0,0.621,0.018,0.818,0.387l3.891,7.229C285.33,481.715,285.491,482.129,285.662,482.552z"/>
	<path fill="#9BD5E1" d="M299.404,486.729h-2.432v-13.018h2.432V486.729z"/>
	<path fill="#9BD5E1" d="M305.758,474.099l6.833,8.705c-0.045-0.422-0.063-0.828-0.063-1.179v-7.913h2.135v13.018h-1.252
		c-0.387,0-0.604-0.1-0.846-0.414l-6.807-8.67c0.036,0.387,0.055,0.774,0.055,1.09v7.994h-2.135v-13.018h1.27
		C305.371,473.712,305.488,473.757,305.758,474.099z"/>
	<path fill="#9BD5E1" d="M327.197,484.389v-2.368h-1.629c-0.316,0-0.505-0.197-0.505-0.449v-1.369h4.331v5.268
		c-1.324,0.963-2.828,1.404-4.971,1.404c-3.781,0-6.545-2.782-6.545-6.653c0-3.925,2.629-6.653,6.771-6.653
		c2.124,0,3.655,0.693,4.735,1.701l-0.702,1.099c-0.135,0.226-0.324,0.333-0.55,0.333c-0.144,0-0.287-0.045-0.44-0.144
		c-0.774-0.46-1.53-0.927-3.124-0.927c-2.566,0-4.213,1.809-4.213,4.591c0,2.989,1.773,4.726,4.258,4.726
		C325.703,484.946,326.469,484.739,327.197,484.389z"/>
	<path fill="#9BD5E1" d="M143.577,495.312v1.99h-3.917v11.027h-2.421v-11.027h-3.935v-1.99H143.577z"/>
	<path fill="#9BD5E1" d="M151.657,508.474c-3.943,0-6.608-2.826-6.608-6.652s2.665-6.654,6.608-6.654c3.935,0,6.59,2.836,6.59,6.654
		C158.248,505.647,155.592,508.474,151.657,508.474z M151.657,497.229c-2.547,0-4.132,1.737-4.132,4.592
		c0,2.854,1.584,4.582,4.132,4.582c2.548,0,4.105-1.729,4.105-4.582C155.763,498.967,154.205,497.229,151.657,497.229z"/>
	<path fill="#9BD5E1" d="M168.829,500.768h0.567c0.459,0,0.738-0.117,0.954-0.396l3.592-4.546c0.297-0.388,0.594-0.514,1.098-0.514
		h2.089l-4.384,5.41c-0.279,0.334-0.513,0.559-0.801,0.703c0.396,0.144,0.702,0.404,0.999,0.811l4.52,6.094h-2.143
		c-0.576,0-0.81-0.162-1-0.477l-3.682-4.808c-0.243-0.315-0.495-0.44-1.044-0.44h-0.765v5.725h-2.422v-13.026h2.422V500.768z"/>
	<path fill="#9BD5E1" d="M182.967,508.329h-2.431v-13.018h2.431V508.329z"/>
	<path fill="#9BD5E1" d="M196.532,505.413l0.955,1.035c-1.053,1.305-2.566,2.025-4.727,2.025c-3.853,0-6.275-2.781-6.275-6.652
		c0-3.908,2.719-6.654,6.68-6.654c1.936,0,3.358,0.676,4.393,1.693l-0.81,1.125c-0.099,0.145-0.234,0.27-0.495,0.27
		c-0.549,0-1.008-1.025-3.106-1.025c-2.449,0-4.187,1.756-4.187,4.592c0,2.916,1.756,4.6,3.953,4.6c1.314,0,2.088-0.261,2.872-0.98
		c0.117-0.109,0.252-0.181,0.405-0.181C196.325,505.26,196.434,505.313,196.532,505.413z"/>
	<path fill="#9BD5E1" d="M203.163,500.768h0.567c0.459,0,0.738-0.117,0.954-0.396l3.592-4.546c0.297-0.388,0.594-0.514,1.098-0.514
		h2.089l-4.384,5.41c-0.279,0.334-0.513,0.559-0.801,0.703c0.396,0.144,0.702,0.404,0.999,0.811l4.52,6.094h-2.143
		c-0.576,0-0.81-0.162-1-0.477l-3.682-4.808c-0.243-0.315-0.495-0.44-1.044-0.44h-0.766v5.725h-2.421v-13.026h2.421V500.768z"/>
	<path fill="#9BD5E1" d="M221.551,497.679c-0.135,0.262-0.297,0.361-0.54,0.361c-0.486,0-1.134-0.9-2.62-0.9
		c-1.332,0-2.017,0.675-2.017,1.639c0,2.467,6.005,1.143,6.005,5.473c0,2.35-1.647,4.223-4.519,4.223
		c-1.657,0-3.268-0.676-4.276-1.711l0.702-1.161c0.135-0.171,0.324-0.297,0.549-0.297c0.603,0,1.305,1.188,3.097,1.188
		c1.377,0,2.17-0.676,2.17-1.9c0-2.754-5.996-0.927-5.996-5.689c0-1.908,1.548-3.736,4.258-3.736c1.54,0,2.872,0.505,3.781,1.369
		L221.551,497.679z"/>
	<path fill="#9BD5E1" d="M234.755,495.312v1.99h-3.917v11.027h-2.421v-11.027h-3.934v-1.99H234.755z"/>
	<path fill="#9BD5E1" d="M247.761,508.329h-1.873c-0.423,0-0.693-0.233-0.81-0.549l-0.973-2.656h-5.393l-0.972,2.656
		c-0.099,0.279-0.396,0.549-0.801,0.549h-1.881l5.113-13.018h2.476L247.761,508.329z M239.334,503.414h4.15l-1.584-4.33
		c-0.144-0.388-0.324-0.919-0.495-1.53c-0.171,0.611-0.333,1.152-0.486,1.549L239.334,503.414z"/>
	<path fill="#9BD5E1" d="M252.951,503.243v5.086h-2.422v-13.018h3.971c3.556,0,5.014,1.539,5.014,3.745
		c0,1.765-1.044,3.142-2.871,3.718c0.306,0.172,0.566,0.424,0.791,0.748l3.26,4.807h-2.179c-0.423,0-0.702-0.17-0.909-0.486
		l-2.736-4.168c-0.207-0.314-0.406-0.432-0.883-0.432H252.951z M252.951,501.505h1.512c1.837,0,2.684-0.953,2.684-2.268
		c0-1.324-0.855-2.053-2.646-2.053h-1.549V501.505z"/>
	<path fill="#9BD5E1" d="M272.258,495.312v1.99h-3.916v11.027h-2.422v-11.027h-3.934v-1.99H272.258z"/>
	<path fill="#9BD5E1" d="M283.354,495.312v1.927h-5.771v3.61h4.546v1.863h-4.546v3.682h5.771v1.936h-8.21v-13.018H283.354z"/>
	<path fill="#9BD5E1" d="M289.301,503.243v5.086h-2.421v-13.018h3.97c3.557,0,5.015,1.539,5.015,3.745
		c0,1.765-1.044,3.142-2.872,3.718c0.307,0.172,0.567,0.424,0.793,0.748l3.259,4.807h-2.179c-0.424,0-0.702-0.17-0.909-0.486
		l-2.737-4.168c-0.207-0.314-0.404-0.432-0.882-0.432H289.301z M289.301,501.505h1.514c1.836,0,2.682-0.953,2.682-2.268
		c0-1.324-0.854-2.053-2.646-2.053h-1.549V501.505z"/>
	<path fill="#9BD5E1" d="M311.74,497.679c-0.136,0.262-0.297,0.361-0.541,0.361c-0.486,0-1.134-0.9-2.619-0.9
		c-1.332,0-2.018,0.675-2.018,1.639c0,2.467,6.006,1.143,6.006,5.473c0,2.35-1.648,4.223-4.52,4.223
		c-1.656,0-3.268-0.676-4.276-1.711l0.702-1.161c0.135-0.171,0.324-0.297,0.549-0.297c0.604,0,1.306,1.188,3.098,1.188
		c1.377,0,2.17-0.676,2.17-1.9c0-2.754-5.996-0.927-5.996-5.689c0-1.908,1.548-3.736,4.258-3.736c1.539,0,2.872,0.505,3.781,1.369
		L311.74,497.679z"/>
	<path fill="#9BD5E1" d="M321.666,508.474c-3.943,0-6.607-2.826-6.607-6.652s2.664-6.654,6.607-6.654c3.935,0,6.59,2.836,6.59,6.654
		C328.256,505.647,325.601,508.474,321.666,508.474z M321.666,497.229c-2.547,0-4.132,1.737-4.132,4.592
		c0,2.854,1.585,4.582,4.132,4.582c2.548,0,4.105-1.729,4.105-4.582C325.771,498.967,324.214,497.229,321.666,497.229z"/>
	<path fill="#9BD5E1" d="M337.407,508.474c-3.942,0-6.608-2.826-6.608-6.652s2.666-6.654,6.608-6.654
		c3.935,0,6.591,2.836,6.591,6.654C343.998,505.647,341.342,508.474,337.407,508.474z M337.407,497.229
		c-2.548,0-4.132,1.737-4.132,4.592c0,2.854,1.584,4.582,4.132,4.582s4.105-1.729,4.105-4.582
		C341.513,498.967,339.955,497.229,337.407,497.229z"/>
	<path fill="#9BD5E1" d="M349.331,495.698l6.833,8.706c-0.045-0.423-0.062-0.828-0.062-1.179v-7.914h2.133v13.018h-1.251
		c-0.388,0-0.603-0.099-0.847-0.414l-6.806-8.669c0.036,0.387,0.054,0.774,0.054,1.089v7.994h-2.133v-13.018h1.27
		C348.943,495.312,349.061,495.356,349.331,495.698z"/>
	<path fill="#9BD5E1" d="M362.92,505.745c0.757,0,1.359,0.604,1.359,1.36c0,0.765-0.603,1.351-1.359,1.351
		c-0.773,0-1.367-0.586-1.367-1.351C361.553,506.349,362.146,505.745,362.92,505.745z"/>
	<path fill="#9BD5E1" d="M120.575,529.93v-13.019h4.492c3.403,0,4.79,1.342,4.79,3.467c0,1.215-0.702,2.277-2.314,2.826
		c1.792,0.406,2.683,1.369,2.683,2.899c0,2.206-1.71,3.826-4.735,3.826H120.575z M122.997,522.548h1.936
		c1.647,0,2.512-0.576,2.512-1.882c0-1.359-0.748-1.882-2.377-1.882h-2.07V522.548z M122.997,524.222v3.817h2.458
		c1.792,0,2.376-0.918,2.376-1.989c0-1.125-0.693-1.828-2.385-1.828H122.997z"/>
	<path fill="#9BD5E1" d="M141.862,516.911v1.928h-5.771v3.609h4.546v1.863h-4.546v3.683h5.771v1.936h-8.21v-13.019H141.862z"/>
	<path fill="#9BD5E1" d="M158.341,516.911v1.928h-5.771v3.853h4.871v1.936h-4.871v5.303h-2.439v-13.019H158.341z"/>
	<path fill="#9BD5E1" d="M164.315,529.93h-2.431v-13.019h2.431V529.93z"/>
	<path fill="#9BD5E1" d="M171.091,524.843v5.087h-2.421v-13.019h3.97c3.556,0,5.014,1.54,5.014,3.746
		c0,1.764-1.044,3.142-2.872,3.718c0.306,0.171,0.567,0.423,0.792,0.747l3.259,4.808h-2.179c-0.423,0-0.702-0.171-0.909-0.486
		l-2.737-4.168c-0.207-0.315-0.405-0.433-0.882-0.433H171.091z M171.091,523.105h1.513c1.836,0,2.683-0.954,2.683-2.269
		c0-1.323-0.855-2.053-2.646-2.053h-1.549V523.105z"/>
	<path fill="#9BD5E1" d="M188.706,519.279c-0.135,0.261-0.297,0.36-0.54,0.36c-0.486,0-1.134-0.9-2.62-0.9
		c-1.332,0-2.017,0.676-2.017,1.639c0,2.467,6.005,1.143,6.005,5.474c0,2.35-1.647,4.222-4.519,4.222
		c-1.657,0-3.268-0.675-4.276-1.71l0.702-1.161c0.135-0.172,0.324-0.297,0.549-0.297c0.603,0,1.305,1.188,3.097,1.188
		c1.377,0,2.169-0.675,2.169-1.899c0-2.755-5.996-0.927-5.996-5.689c0-1.909,1.548-3.736,4.258-3.736
		c1.54,0,2.872,0.505,3.781,1.368L188.706,519.279z"/>
	<path fill="#9BD5E1" d="M201.91,516.911v1.99h-3.917v11.028h-2.421v-11.028h-3.935v-1.99H201.91z"/>
	<path fill="#9BD5E1" d="M218.793,516.911v1.99h-3.917v11.028h-2.421v-11.028h-3.935v-1.99H218.793z"/>
	<path fill="#9BD5E1" d="M226.874,530.073c-3.943,0-6.608-2.826-6.608-6.652s2.665-6.653,6.608-6.653c3.935,0,6.59,2.836,6.59,6.653
		C233.464,527.247,230.809,530.073,226.874,530.073z M226.874,518.829c-2.547,0-4.132,1.738-4.132,4.592s1.584,4.582,4.132,4.582
		c2.548,0,4.105-1.729,4.105-4.582S229.422,518.829,226.874,518.829z"/>
	<path fill="#9BD5E1" d="M250.104,527.589v-2.367h-1.629c-0.315,0-0.504-0.198-0.504-0.451v-1.367h4.33v5.266
		c-1.324,0.964-2.827,1.404-4.97,1.404c-3.781,0-6.545-2.781-6.545-6.652c0-3.926,2.629-6.653,6.771-6.653
		c2.124,0,3.654,0.693,4.734,1.702l-0.701,1.098c-0.135,0.225-0.324,0.334-0.55,0.334c-0.144,0-0.288-0.046-0.44-0.145
		c-0.775-0.459-1.531-0.928-3.125-0.928c-2.565,0-4.213,1.81-4.213,4.592c0,2.988,1.774,4.727,4.258,4.727
		C248.609,528.147,249.375,527.94,250.104,527.589z"/>
	<path fill="#9BD5E1" d="M264.117,516.911v1.928h-5.771v3.609h4.547v1.863h-4.547v3.683h5.771v1.936h-8.211v-13.019H264.117z"/>
	<path fill="#9BD5E1" d="M276.735,516.911v1.99h-3.917v11.028h-2.421v-11.028h-3.935v-1.99H276.735z"/>
	<path fill="#9BD5E1" d="M286.524,517.299l6.833,8.706c-0.045-0.424-0.062-0.828-0.062-1.18v-7.914h2.133v13.019h-1.251
		c-0.388,0-0.603-0.099-0.847-0.414l-6.806-8.669c0.036,0.387,0.054,0.773,0.054,1.089v7.994h-2.133v-13.019h1.27
		C286.137,516.911,286.254,516.957,286.524,517.299z"/>
	<path fill="#9BD5E1" d="M305.299,530.073c-3.942,0-6.607-2.826-6.607-6.652s2.665-6.653,6.607-6.653
		c3.936,0,6.591,2.836,6.591,6.653C311.89,527.247,309.234,530.073,305.299,530.073z M305.299,518.829
		c-2.547,0-4.131,1.738-4.131,4.592s1.584,4.582,4.131,4.582c2.549,0,4.105-1.729,4.105-4.582S307.848,518.829,305.299,518.829z"/>
	<path fill="#9BD5E1" d="M323.615,516.911v1.99h-3.916v11.028h-2.422v-11.028h-3.934v-1.99H323.615z"/>
	<path fill="#9BD5E1" d="M329.229,529.93h-2.431v-13.019h2.431V529.93z"/>
	<path fill="#9BD5E1" d="M341.715,516.911v1.928h-5.771v3.853h4.871v1.936h-4.871v5.303h-2.439v-13.019H341.715z"/>
	<path fill="#9BD5E1" d="M347.688,529.93h-2.43v-13.019h2.43V529.93z"/>
	<path fill="#9BD5E1" d="M360.173,516.911v1.928h-5.771v3.609h4.546v1.863h-4.546v3.683h5.771v1.936h-8.21v-13.019H360.173z"/>
	<path fill="#9BD5E1" d="M368.587,529.93h-4.97v-13.019h4.97c3.935,0,6.591,2.692,6.591,6.51
		C375.178,527.247,372.521,529.93,368.587,529.93z M368.587,518.839h-2.53v9.164h2.53c2.539,0,4.114-1.729,4.114-4.582
		S371.126,518.839,368.587,518.839z"/>
	<path fill="#9BD5E1" d="M380.357,527.346c0.757,0,1.359,0.604,1.359,1.359c0,0.766-0.603,1.351-1.359,1.351
		c-0.773,0-1.368-0.585-1.368-1.351C378.989,527.949,379.584,527.346,380.357,527.346z M381.43,516.911v5.15
		c0,1.09-0.117,2.098-0.297,3.277h-1.504c-0.18-1.18-0.297-2.188-0.297-3.277v-5.15H381.43z"/>
</g>
<polygon fill="#9BD5E1" points="491.475,66.849 12.585,85.955 -0.415,0.087 491.202,0.087 "/>
<g>
	<path fill="#FFFFFF" d="M97.706,54.358h-3.945V41.166H78.14v13.192h-3.946V25.363h3.946v12.93h15.621v-12.93h3.945V54.358z"/>
	<path fill="#FFFFFF" d="M126.701,25.363v3.197H112.78v9.631h11.27v3.076h-11.27v9.895h13.921v3.197h-17.867V25.363H126.701z"/>
	<path fill="#FFFFFF" d="M147.562,42.825v11.533h-3.905V42.825l-10.623-17.462h3.439c0.351,0,0.627,0.088,0.83,0.263
		c0.203,0.175,0.377,0.391,0.526,0.647l6.636,11.27c0.27,0.473,0.496,0.917,0.678,1.335c0.182,0.418,0.347,0.83,0.496,1.234
		c0.148-0.418,0.31-0.836,0.485-1.254s0.398-0.856,0.668-1.315l6.616-11.27c0.122-0.216,0.287-0.421,0.496-0.617
		c0.209-0.195,0.482-0.293,0.819-0.293h3.48L147.562,42.825z"/>
	<path fill="#FFFFFF" d="M161.2,51.869c0-0.31,0.057-0.604,0.172-0.88c0.115-0.276,0.276-0.519,0.486-0.728
		c0.209-0.209,0.462-0.375,0.759-0.496c0.296-0.121,0.62-0.182,0.971-0.182c0.405,0,0.766,0.075,1.083,0.223
		c0.317,0.149,0.58,0.354,0.789,0.617s0.368,0.566,0.476,0.911c0.108,0.344,0.162,0.718,0.162,1.123
		c0,0.607-0.088,1.238-0.263,1.892c-0.176,0.654-0.425,1.302-0.749,1.942s-0.726,1.265-1.204,1.872
		c-0.479,0.607-1.022,1.167-1.629,1.679l-0.607-0.587c-0.175-0.162-0.263-0.351-0.263-0.566c0-0.175,0.094-0.357,0.283-0.546
		c0.135-0.148,0.307-0.348,0.516-0.597c0.209-0.25,0.421-0.537,0.637-0.86s0.415-0.681,0.597-1.072s0.313-0.809,0.395-1.254h-0.263
		c-0.351,0-0.667-0.061-0.951-0.182c-0.284-0.122-0.53-0.293-0.739-0.516c-0.209-0.222-0.371-0.485-0.486-0.789
		C161.257,52.567,161.2,52.233,161.2,51.869z"/>
	<path fill="#FFFFFF" d="M200.575,39.871c0,2.172-0.344,4.148-1.032,5.928c-0.688,1.781-1.659,3.305-2.914,4.573
		s-2.759,2.249-4.512,2.944c-1.754,0.695-3.696,1.042-5.827,1.042h-10.846V25.363h10.846c2.131,0,4.073,0.348,5.827,1.042
		c1.753,0.695,3.258,1.68,4.512,2.954c1.254,1.275,2.226,2.803,2.914,4.583C200.23,35.723,200.575,37.699,200.575,39.871z
		 M196.548,39.871c0-1.781-0.243-3.372-0.729-4.775c-0.485-1.403-1.173-2.59-2.063-3.561c-0.891-0.971-1.97-1.713-3.238-2.226
		s-2.678-0.769-4.229-0.769h-6.9v22.642h6.9c1.551,0,2.96-0.256,4.229-0.769c1.268-0.512,2.347-1.251,3.238-2.215
		c0.89-0.964,1.578-2.148,2.063-3.551C196.305,43.243,196.548,41.651,196.548,39.871z"/>
	<path fill="#FFFFFF" d="M214.272,42.258v12.1h-3.905V25.363h8.195c1.834,0,3.419,0.186,4.755,0.557s2.438,0.907,3.308,1.608
		c0.87,0.702,1.514,1.548,1.933,2.54c0.418,0.991,0.627,2.101,0.627,3.328c0,1.025-0.162,1.983-0.485,2.874
		c-0.324,0.89-0.792,1.689-1.406,2.397c-0.614,0.708-1.363,1.312-2.246,1.811c-0.884,0.499-1.885,0.877-3.005,1.133
		c0.486,0.284,0.917,0.695,1.295,1.234l8.458,11.513h-3.48c-0.715,0-1.241-0.276-1.578-0.83l-7.527-10.36
		c-0.229-0.324-0.479-0.556-0.749-0.698c-0.27-0.142-0.675-0.212-1.214-0.212H214.272z M214.272,39.405h4.107
		c1.146,0,2.155-0.138,3.025-0.415c0.87-0.276,1.599-0.667,2.185-1.173c0.587-0.506,1.029-1.109,1.326-1.811
		c0.296-0.701,0.445-1.477,0.445-2.327c0-1.726-0.57-3.028-1.709-3.905c-1.14-0.877-2.836-1.315-5.089-1.315h-4.29V39.405z"/>
	<path fill="#FFFFFF" d="M257.938,25.363v3.197h-13.921v9.631h11.27v3.076h-11.27v9.895h13.921v3.197H240.07V25.363H257.938z"/>
	<path fill="#FFFFFF" d="M291.484,54.358h-3.035c-0.351,0-0.634-0.087-0.85-0.263c-0.216-0.175-0.377-0.397-0.485-0.667
		l-2.712-7.001h-13.01l-2.711,7.001c-0.095,0.243-0.257,0.458-0.486,0.647c-0.229,0.189-0.513,0.283-0.85,0.283h-3.035
		l11.594-28.995h3.986L291.484,54.358z M272.485,43.593h10.825l-4.553-11.796c-0.297-0.729-0.587-1.639-0.87-2.732
		c-0.148,0.553-0.294,1.062-0.435,1.528c-0.143,0.465-0.281,0.874-0.416,1.224L272.485,43.593z"/>
	<path fill="#FFFFFF" d="M313.954,44.898c0.142,0.358,0.28,0.718,0.415,1.083c0.135-0.377,0.275-0.738,0.425-1.083
		c0.147-0.344,0.317-0.691,0.506-1.042l9.813-17.826c0.175-0.311,0.357-0.499,0.546-0.567c0.188-0.067,0.458-0.101,0.81-0.101h2.894
		v28.995h-3.44V33.052c0-0.283,0.008-0.587,0.021-0.911c0.013-0.324,0.033-0.654,0.061-0.991l-9.936,18.129
		c-0.337,0.607-0.809,0.911-1.416,0.911h-0.566c-0.607,0-1.08-0.304-1.416-0.911l-10.158-18.19c0.041,0.351,0.07,0.695,0.092,1.032
		c0.02,0.337,0.029,0.647,0.029,0.931v21.306h-3.439V25.363h2.894c0.351,0,0.62,0.034,0.81,0.101
		c0.188,0.068,0.371,0.256,0.547,0.567l10.016,17.846C313.646,44.201,313.812,44.542,313.954,44.898z"/>
	<path fill="#FFFFFF" d="M358.337,25.363v3.197h-13.921v9.631h11.27v3.076h-11.27v9.895h13.921v3.197h-17.866V25.363H358.337z"/>
	<path fill="#FFFFFF" d="M372.338,42.258v12.1h-3.904V25.363h8.194c1.835,0,3.419,0.186,4.755,0.557s2.438,0.907,3.309,1.608
		c0.869,0.702,1.514,1.548,1.932,2.54c0.418,0.991,0.627,2.101,0.627,3.328c0,1.025-0.161,1.983-0.484,2.874
		c-0.324,0.89-0.793,1.689-1.406,2.397c-0.615,0.708-1.363,1.312-2.246,1.811c-0.885,0.499-1.886,0.877-3.006,1.133
		c0.486,0.284,0.918,0.695,1.295,1.234l8.459,11.513h-3.48c-0.715,0-1.242-0.276-1.578-0.83l-7.527-10.36
		c-0.229-0.324-0.479-0.556-0.748-0.698c-0.271-0.142-0.676-0.212-1.215-0.212H372.338z M372.338,39.405h4.107
		c1.146,0,2.155-0.138,3.025-0.415c0.87-0.276,1.599-0.667,2.186-1.173c0.586-0.506,1.028-1.109,1.325-1.811
		c0.296-0.701,0.444-1.477,0.444-2.327c0-1.726-0.569-3.028-1.709-3.905c-1.141-0.877-2.836-1.315-5.089-1.315h-4.29V39.405z"/>
	<path fill="#FFFFFF" d="M412.988,29.895c-0.121,0.203-0.25,0.354-0.385,0.456s-0.311,0.152-0.525,0.152
		c-0.23,0-0.496-0.115-0.8-0.344c-0.304-0.229-0.688-0.482-1.153-0.759c-0.465-0.276-1.025-0.529-1.68-0.759
		c-0.654-0.229-1.446-0.344-2.377-0.344c-0.877,0-1.652,0.118-2.327,0.354c-0.675,0.236-1.237,0.556-1.689,0.961
		s-0.792,0.88-1.022,1.427c-0.229,0.546-0.344,1.136-0.344,1.771c0,0.809,0.199,1.48,0.598,2.013
		c0.397,0.533,0.924,0.988,1.578,1.366c0.654,0.378,1.396,0.705,2.226,0.981s1.679,0.563,2.55,0.86
		c0.869,0.297,1.719,0.631,2.549,1.001c0.83,0.371,1.571,0.84,2.227,1.406c0.653,0.566,1.18,1.261,1.578,2.084
		c0.396,0.823,0.596,1.835,0.596,3.035c0,1.268-0.215,2.458-0.646,3.571s-1.062,2.081-1.893,2.904
		c-0.829,0.823-1.848,1.47-3.055,1.942c-1.207,0.472-2.58,0.708-4.117,0.708c-1.876,0-3.586-0.34-5.13-1.022
		c-1.545-0.681-2.863-1.602-3.956-2.762l1.133-1.861c0.108-0.148,0.24-0.273,0.395-0.375c0.155-0.101,0.328-0.152,0.517-0.152
		c0.283,0,0.606,0.152,0.972,0.456c0.363,0.303,0.818,0.637,1.365,1.001s1.207,0.698,1.982,1.001s1.724,0.455,2.844,0.455
		c0.93,0,1.76-0.128,2.488-0.384c0.729-0.256,1.346-0.617,1.852-1.083s0.894-1.022,1.164-1.669c0.27-0.647,0.404-1.369,0.404-2.165
		c0-0.876-0.199-1.595-0.598-2.155c-0.397-0.56-0.92-1.028-1.568-1.406c-0.646-0.377-1.385-0.698-2.215-0.961
		c-0.83-0.263-1.68-0.533-2.55-0.81c-0.87-0.276-1.72-0.597-2.55-0.961c-0.829-0.364-1.567-0.836-2.215-1.417
		c-0.647-0.58-1.17-1.305-1.568-2.175c-0.398-0.87-0.597-1.945-0.597-3.227c0-1.025,0.198-2.017,0.597-2.975
		c0.398-0.958,0.975-1.807,1.73-2.549c0.755-0.742,1.689-1.335,2.802-1.781c1.113-0.445,2.392-0.667,3.835-0.667
		c1.618,0,3.096,0.256,4.431,0.769s2.502,1.254,3.501,2.226L412.988,29.895z"/>
	<path fill="#FFFFFF" d="M424.521,52.132c0-0.351,0.063-0.681,0.191-0.992c0.129-0.31,0.305-0.58,0.527-0.809
		s0.488-0.412,0.799-0.546s0.641-0.203,0.991-0.203s0.681,0.068,0.991,0.203s0.58,0.317,0.81,0.546s0.407,0.499,0.536,0.809
		c0.129,0.311,0.192,0.641,0.192,0.992c0,0.364-0.063,0.698-0.192,1.001s-0.307,0.57-0.536,0.799s-0.499,0.408-0.81,0.536
		s-0.641,0.192-0.991,0.192s-0.681-0.064-0.991-0.192s-0.576-0.307-0.799-0.536s-0.398-0.496-0.527-0.799
		C424.585,52.83,424.521,52.497,424.521,52.132z M428.811,25.363v11.574c0,0.607-0.01,1.201-0.029,1.781
		c-0.021,0.58-0.051,1.163-0.092,1.75s-0.091,1.187-0.152,1.801c-0.061,0.614-0.131,1.271-0.212,1.973h-2.448
		c-0.081-0.702-0.152-1.359-0.213-1.973c-0.061-0.614-0.111-1.214-0.151-1.801s-0.071-1.17-0.091-1.75
		c-0.021-0.58-0.03-1.174-0.03-1.781V25.363H428.811z"/>
</g>
<g>
	<path fill="#9CD5E1" d="M229.332,170.64h-2.06v-13.563h-17.724v13.563h-2.061v-28.306h2.061v13.203h17.724v-13.203h2.06V170.64z"/>
	<path fill="#9CD5E1" d="M251.635,159.137c0,0.58-0.16,0.76-0.541,0.76h-14.383v0.38c0,5.981,2.881,9.102,7.362,9.102
		c4.021,0,5.761-2.141,6.281-2.141c0.181,0,0.301,0.06,0.4,0.2l0.521,0.64c-1.28,1.601-4.341,2.821-7.342,2.821
		c-5.461,0-9.102-3.861-9.102-10.623c0-5.701,3.321-9.862,8.982-9.862C248.293,150.416,251.635,153.556,251.635,159.137z
		 M236.791,158.677h13.123c0-4.261-2.461-6.842-6.082-6.842C239.752,151.835,237.271,154.516,236.791,158.677z"/>
	<path fill="#9CD5E1" d="M258.02,141.533v29.106h-1.9v-29.106H258.02z"/>
	<path fill="#9CD5E1" d="M263.799,177.681v-26.946h1.039c0.341,0,0.58,0.12,0.601,0.5l0.181,3.081
		c1.76-2.401,4.121-3.921,7.061-3.921c4.901,0,7.762,3.38,7.762,10.162c0,5.821-3.08,10.342-8.662,10.342
		c-2.72,0-4.641-1-6.08-2.941v9.722H263.799z M265.699,155.836v10.442c1.52,2.3,3.32,3.121,5.701,3.121
		c4.681,0,7.081-3.601,7.081-8.842c0-5.921-2.24-8.622-6.341-8.622C269.5,151.936,267.359,153.376,265.699,155.836z"/>
	<path fill="#9CD5E1" d="M294.338,150.735v12.723c0,3.741,1.681,5.981,5.181,5.981c2.581,0,4.861-1.4,6.642-3.741v-14.963h1.921
		v19.904h-1.061c-0.38,0-0.561-0.18-0.58-0.52l-0.18-2.961c-1.841,2.301-4.262,3.801-7.222,3.801c-4.401,0-6.622-2.881-6.622-7.502
		v-12.723H294.338z"/>
	<path fill="#9CD5E1" d="M324.371,153.196c-0.101,0.18-0.24,0.28-0.44,0.28c-0.6,0-1.74-1.621-4.921-1.621
		c-2.881,0-4.821,1.781-4.821,3.801c0,4.981,11.083,2.701,11.083,9.162c0,3.441-2.561,6.142-6.981,6.142
		c-2.801,0-4.741-0.98-6.342-2.421l0.46-0.68c0.141-0.22,0.261-0.32,0.561-0.32c0.7,0,1.84,2.021,5.401,2.021
		c3.36,0,5.121-2,5.121-4.421c0-5.321-11.103-2.781-11.103-9.342c0-2.84,2.521-5.381,6.581-5.381c2.421,0,4.241,0.68,5.821,2.12
		L324.371,153.196z"/>
	<path fill="#9CD5E1" d="M351.432,153.396c-0.141,0.14-0.221,0.24-0.44,0.24c-0.54,0-1.721-1.721-5.041-1.721
		c-4.561,0-7.161,3.381-7.161,8.762c0,5.581,2.72,8.722,6.901,8.722c3.841,0,5.001-2.161,5.601-2.161c0.181,0,0.301,0.06,0.4,0.2
		l0.521,0.64c-1.24,1.62-3.801,2.821-6.802,2.821c-5.041,0-8.562-3.761-8.562-10.222c0-6.062,3.261-10.262,9.002-10.262
		c2.58,0,4.581,0.88,6.081,2.3L351.432,153.396z"/>
	<path fill="#9CD5E1" d="M355.731,170.64v-19.904h1.001c0.46,0,0.64,0.16,0.66,0.62l0.16,4.201c1.28-3.221,3.38-5.161,6.501-5.161
		c1.2,0,2.2,0.26,3.101,0.74l-0.26,1.32c-0.04,0.22-0.181,0.32-0.4,0.32c-0.32,0-1.12-0.52-2.801-0.52
		c-3.021,0-4.86,1.92-6.062,5.441v12.943H355.731z"/>
	<path fill="#9CD5E1" d="M385.451,159.137c0,0.58-0.16,0.76-0.541,0.76h-14.383v0.38c0,5.981,2.881,9.102,7.361,9.102
		c4.021,0,5.762-2.141,6.281-2.141c0.181,0,0.301,0.06,0.4,0.2l0.521,0.64c-1.28,1.601-4.341,2.821-7.342,2.821
		c-5.461,0-9.102-3.861-9.102-10.623c0-5.701,3.32-9.862,8.981-9.862C382.11,150.416,385.451,153.556,385.451,159.137z
		 M370.607,158.677h13.123c0-4.261-2.461-6.842-6.081-6.842C373.568,151.835,371.088,154.516,370.607,158.677z"/>
	<path fill="#9CD5E1" d="M402.329,170.64c-0.4,0-0.64-0.18-0.74-0.56l-0.28-2.541c-2.2,2.141-4.181,3.421-7.461,3.421
		c-2.721,0-5.321-1.541-5.321-5.141c0-3.381,3.681-5.841,12.702-6.062v-2.081c0-3.681-1.6-5.741-4.721-5.741
		c-3.841,0-5.241,2.561-6.041,2.561c-0.26,0-0.46-0.12-0.601-0.36l-0.34-0.58c2.08-2.081,4.281-3.161,7.182-3.161
		c4.261,0,6.381,2.84,6.381,7.281v12.963H402.329z M401.229,166.219v-5.181c-7.581,0.22-10.862,1.9-10.862,4.701
		c0,2.68,1.881,3.841,3.961,3.841C397.468,169.58,399.349,168.139,401.229,166.219z"/>
	<path fill="#9CD5E1" d="M409.171,166.379v-13.603h-2.861c-0.3,0-0.5-0.16-0.5-0.46v-0.74l3.401-0.24l0.479-7.122
		c0.021-0.24,0.2-0.46,0.5-0.46h0.9v7.602h6.262v1.42h-6.262v13.503c0,2.18,1.2,3.121,2.74,3.121c1.9,0,2.761-1.34,3.141-1.34
		c0.101,0,0.221,0.06,0.32,0.2l0.521,0.84c-1.021,1.121-2.681,1.861-4.361,1.861C410.751,170.96,409.171,169.5,409.171,166.379z"/>
	<path fill="#9CD5E1" d="M436.162,159.137c0,0.58-0.16,0.76-0.541,0.76h-14.383v0.38c0,5.981,2.881,9.102,7.361,9.102
		c4.021,0,5.762-2.141,6.281-2.141c0.181,0,0.301,0.06,0.4,0.2l0.521,0.64c-1.28,1.601-4.341,2.821-7.342,2.821
		c-5.461,0-9.102-3.861-9.102-10.623c0-5.701,3.32-9.862,8.981-9.862C432.821,150.416,436.162,153.556,436.162,159.137z
		 M421.318,158.677h13.123c0-4.261-2.461-6.842-6.081-6.842C424.279,151.835,421.799,154.516,421.318,158.677z"/>
	<path fill="#9CD5E1" d="M152.987,213.278v-11.462h-2.081c-0.54,0-0.98-0.34-0.98-1.04v-1.96l3.301-0.54l1.04-5.601
		c0.1-0.541,0.52-0.84,1.1-0.84h2.561v6.461h5.401v3.521h-5.401v11.123c0,1.28,0.7,2.041,1.761,2.041c1.22,0,1.58-0.68,2.08-0.68
		c0.3,0,0.44,0.14,0.66,0.44l1.48,2.4c-1.44,1.2-3.381,1.821-5.381,1.821C154.987,218.96,152.987,216.819,152.987,213.278z"/>
	<path fill="#9CD5E1" d="M166.45,218.64v-29.727h4.941v11.423c1.601-1.521,3.441-2.541,6.021-2.541c4.501,0,6.921,3.201,6.921,7.781
		v13.063h-4.941v-13.063c0-2.5-1.161-3.94-3.481-3.94c-1.7,0-3.181,0.82-4.521,2.16v14.843H166.45z"/>
	<path fill="#9CD5E1" d="M206.134,207.097c0,1.5-0.24,1.9-1.14,1.9h-12.683c0.3,4.221,2.361,6.122,5.622,6.122
		c3.221,0,4.461-1.801,5.681-1.801c0.4,0,0.68,0.16,0.9,0.46l1.44,1.8c-2.201,2.581-5.561,3.361-8.462,3.361
		c-5.681,0-10.102-3.821-10.102-11.002c0-5.602,3.721-10.142,9.862-10.142C202.433,197.795,206.134,201.176,206.134,207.097z
		 M192.411,206.017h9.282c0-2.561-1.38-4.681-4.341-4.681C194.471,201.336,192.871,203.036,192.411,206.017z"/>
	<path fill="#9CD5E1" d="M217.869,225.341v-27.226h3.021c0.64,0,1.12,0.28,1.26,0.9l0.4,1.9c1.66-1.9,3.741-3.181,6.621-3.181
		c4.481,0,7.582,3.781,7.582,10.482c0,6.142-3.44,10.723-8.822,10.723c-2.32,0-3.841-0.74-5.121-2v8.402H217.869z M222.81,204.117
		v9.202c1.12,1.38,2.44,1.86,3.961,1.86c3,0,4.881-2.22,4.881-6.961c0-4.781-1.58-6.581-4.181-6.581
		C225.411,201.636,224.07,202.536,222.81,204.117z"/>
	<path fill="#9CD5E1" d="M257.689,207.097c0,1.5-0.24,1.9-1.141,1.9h-12.683c0.3,4.221,2.361,6.122,5.622,6.122
		c3.221,0,4.461-1.801,5.681-1.801c0.4,0,0.681,0.16,0.9,0.46l1.44,1.8c-2.2,2.581-5.562,3.361-8.462,3.361
		c-5.681,0-10.102-3.821-10.102-11.002c0-5.602,3.721-10.142,9.862-10.142C253.988,197.795,257.689,201.176,257.689,207.097z
		 M243.966,206.017h9.282c0-2.561-1.381-4.681-4.342-4.681C246.026,201.336,244.426,203.036,243.966,206.017z"/>
	<path fill="#9CD5E1" d="M261.137,218.64v-20.524h2.9c1.02,0,1.32,0.34,1.46,1.24l0.3,2.48c1.461-2.541,3.441-4.101,5.901-4.101
		c1.021,0,1.86,0.24,2.521,0.7l-0.641,3.701c-0.079,0.48-0.34,0.66-0.799,0.66c-0.4,0-1.061-0.28-2.201-0.28
		c-2.061,0-3.48,1.16-4.501,3.341v12.783H261.137z"/>
	<path fill="#9CD5E1" d="M278.744,218.64v-16.804l-1.78-0.28c-0.78-0.14-1.28-0.52-1.28-1.24v-2.021h3.061v-1.521
		c0-4.701,2.921-7.562,7.662-7.562c0.94,0,1.82,0.12,2.641,0.38l-0.101,2.481c-0.06,0.78-0.82,0.86-1.7,0.86
		c-2.341,0-3.721,0.94-3.721,4.001v1.36h5.341v3.521h-5.181v16.824H278.744z"/>
	<path fill="#9CD5E1" d="M308.563,207.097c0,1.5-0.239,1.9-1.14,1.9h-12.683c0.3,4.221,2.36,6.122,5.621,6.122
		c3.221,0,4.461-1.801,5.681-1.801c0.4,0,0.681,0.16,0.9,0.46l1.44,1.8c-2.2,2.581-5.562,3.361-8.462,3.361
		c-5.681,0-10.102-3.821-10.102-11.002c0-5.602,3.721-10.142,9.861-10.142C304.863,197.795,308.563,201.176,308.563,207.097z
		 M294.841,206.017h9.282c0-2.561-1.381-4.681-4.341-4.681C296.901,201.336,295.301,203.036,294.841,206.017z"/>
	<path fill="#9CD5E1" d="M326.594,202.456c-0.3,0.38-0.5,0.6-1.04,0.6c-1,0-1.78-1.5-4.501-1.5c-3.48,0-5.201,2.581-5.201,6.781
		c0,4.401,1.94,6.841,5.081,6.841s3.621-1.86,4.841-1.86c0.4,0,0.7,0.16,0.9,0.46l1.42,1.8c-2.2,2.581-5.16,3.361-8.081,3.361
		c-5.062,0-9.222-3.881-9.222-10.603c0-6.021,3.5-10.542,9.962-10.542c3.061,0,5.301,1.02,7.142,2.86L326.594,202.456z"/>
	<path fill="#9CD5E1" d="M332.639,213.278v-11.462h-2.08c-0.54,0-0.98-0.34-0.98-1.04v-1.96l3.301-0.54l1.04-5.601
		c0.1-0.541,0.521-0.84,1.101-0.84h2.561v6.461h5.4v3.521h-5.4v11.123c0,1.28,0.7,2.041,1.76,2.041c1.221,0,1.581-0.68,2.081-0.68
		c0.3,0,0.439,0.14,0.66,0.44l1.479,2.4c-1.439,1.2-3.38,1.821-5.381,1.821C334.639,218.96,332.639,216.819,332.639,213.278z"/>
	<path fill="#9CD5E1" d="M359.899,188.913v29.727h-4.94v-29.727H359.899z"/>
	<path fill="#9CD5E1" d="M380.501,218.64h-2.22c-0.94,0-1.44-0.2-1.701-1.06l-0.439-1.46c-2.081,1.86-3.861,2.841-6.781,2.841
		c-3.481,0-5.962-1.881-5.962-5.562c0-3.081,2.94-6.301,12.283-6.521v-1.2c0-2.74-1.181-4.041-3.401-4.041
		c-3.221,0-3.961,1.82-5.581,1.82c-0.66,0-1.14-0.4-1.44-0.9l-0.9-1.58c2.361-2.161,5.201-3.241,8.542-3.241
		c4.802,0,7.602,3.301,7.602,7.941V218.64z M375.681,213.338v-3.46c-5.762,0.26-7.562,1.48-7.562,3.261c0,1.74,1.12,2.42,2.78,2.42
		C372.92,215.559,374.26,214.819,375.681,213.338z"/>
	<path fill="#9CD5E1" d="M384.834,218.64v-20.524h3.021c0.641,0,1.061,0.3,1.261,0.9l0.319,1.52c1.44-1.58,3.101-2.74,5.521-2.74
		c2.581,0,4.241,1.52,5.062,3.841c1.28-2.721,3.94-3.841,6.561-3.841c4.541,0,7.082,2.84,7.082,7.781v13.063h-4.941v-13.063
		c0-2.621-1.16-3.94-3.381-3.94c-2,0-3.601,1.38-3.601,3.94v13.063h-4.961v-13.063c0-2.74-1.12-3.94-3.28-3.94
		c-1.421,0-2.661,0.76-3.721,1.98v15.023H384.834z"/>
	<path fill="#9CD5E1" d="M418.058,225.341v-27.226h3.021c0.641,0,1.12,0.28,1.261,0.9l0.399,1.9c1.66-1.9,3.741-3.181,6.622-3.181
		c4.48,0,7.581,3.781,7.581,10.482c0,6.142-3.44,10.723-8.821,10.723c-2.321,0-3.841-0.74-5.121-2v8.402H418.058z M422.999,204.117
		v9.202c1.12,1.38,2.44,1.86,3.96,1.86c3.001,0,4.882-2.22,4.882-6.961c0-4.781-1.581-6.581-4.182-6.581
		C425.6,201.636,424.259,202.536,422.999,204.117z"/>
	<path fill="#9CD5E1" d="M95.643,266.64v-17.824l-2.801-0.18c-0.38-0.02-0.58-0.2-0.58-0.5v-0.78h3.381v-2.521
		c0-4.561,2.46-6.861,6.101-6.861c0.82,0,1.721,0.16,2.361,0.42l-0.06,0.92c-0.02,0.18-0.14,0.28-0.38,0.28
		c-0.32,0-0.86-0.12-1.66-0.12c-2.641,0-4.501,1.44-4.501,5.421v2.46h6.461v1.42h-6.421v17.864H95.643z"/>
	<path fill="#9CD5E1" d="M123.55,256.678c0,6.221-3.341,10.222-9.062,10.222s-9.082-4.001-9.082-10.222
		c0-6.222,3.361-10.262,9.082-10.262S123.55,250.456,123.55,256.678z M121.589,256.678c0-5.301-2.36-8.762-7.102-8.762
		c-4.721,0-7.122,3.461-7.122,8.762c0,5.341,2.4,8.722,7.122,8.722C119.229,265.399,121.589,262.019,121.589,256.678z"/>
	<path fill="#9CD5E1" d="M127.942,266.64v-19.904h1c0.46,0,0.64,0.16,0.66,0.62l0.16,4.201c1.28-3.221,3.381-5.161,6.501-5.161
		c1.2,0,2.2,0.26,3.101,0.74l-0.26,1.32c-0.04,0.22-0.18,0.32-0.4,0.32c-0.32,0-1.12-0.52-2.801-0.52
		c-3.021,0-4.861,1.92-6.061,5.441v12.943H127.942z"/>
	<path fill="#9CD5E1" d="M155.882,273.041c-0.16,0.38-0.38,0.64-0.86,0.64h-1.36l3.5-7.782l-8.422-19.164h1.581
		c0.4,0,0.62,0.24,0.72,0.48l6.701,15.483c0.16,0.4,0.28,0.82,0.38,1.24c0.14-0.42,0.28-0.84,0.44-1.24l6.622-15.483
		c0.14-0.3,0.38-0.48,0.68-0.48h1.46L155.882,273.041z"/>
	<path fill="#9CD5E1" d="M186.557,256.678c0,6.221-3.341,10.222-9.062,10.222s-9.082-4.001-9.082-10.222
		c0-6.222,3.361-10.262,9.082-10.262S186.557,250.456,186.557,256.678z M184.596,256.678c0-5.301-2.36-8.762-7.102-8.762
		c-4.721,0-7.122,3.461-7.122,8.762c0,5.341,2.4,8.722,7.122,8.722C182.236,265.399,184.596,262.019,184.596,256.678z"/>
	<path fill="#9CD5E1" d="M192.505,246.735v12.723c0,3.741,1.68,5.981,5.181,5.981c2.581,0,4.861-1.4,6.641-3.741v-14.963h1.92
		v19.904h-1.06c-0.38,0-0.56-0.18-0.58-0.52l-0.18-2.961c-1.84,2.301-4.261,3.801-7.222,3.801c-4.401,0-6.621-2.881-6.621-7.502
		v-12.723H192.505z"/>
	<path fill="#9CD5E1" d="M224.179,266.64c-0.4,0-0.64-0.18-0.74-0.56l-0.28-2.541c-2.201,2.141-4.181,3.421-7.462,3.421
		c-2.72,0-5.321-1.541-5.321-5.141c0-3.381,3.681-5.841,12.703-6.062v-2.081c0-3.681-1.601-5.741-4.721-5.741
		c-3.841,0-5.241,2.561-6.041,2.561c-0.26,0-0.46-0.12-0.6-0.36l-0.34-0.58c2.081-2.081,4.281-3.161,7.182-3.161
		c4.261,0,6.381,2.84,6.381,7.281v12.963H224.179z M223.079,262.219v-5.181c-7.582,0.22-10.862,1.9-10.862,4.701
		c0,2.68,1.88,3.841,3.961,3.841C219.318,265.58,221.198,264.139,223.079,262.219z"/>
	<path fill="#9CD5E1" d="M230.232,266.64v-19.904h1.04c0.34,0,0.54,0.16,0.6,0.5l0.18,3.001c1.82-2.301,4.241-3.821,7.202-3.821
		c4.401,0,6.621,2.88,6.621,7.501v12.723h-1.9v-12.723c0-3.741-1.68-5.981-5.201-5.981c-2.621,0-4.881,1.44-6.642,3.781v14.923
		H230.232z"/>
	<path fill="#9CD5E1" d="M265.574,266.64c-0.34,0-0.52-0.18-0.58-0.52l-0.2-3.141c-1.761,2.4-4.12,3.921-7.062,3.921
		c-4.881,0-7.762-3.381-7.762-10.163c0-5.821,3.101-10.342,8.682-10.342c2.701,0,4.621,1.02,6.062,2.94v-11.803h1.921v29.106
		H265.574z M264.714,261.499v-10.502c-1.54-2.26-3.36-3.101-5.701-3.101c-4.681,0-7.081,3.601-7.081,8.842
		c0,5.921,2.26,8.622,6.341,8.622C260.913,265.359,263.033,263.919,264.714,261.499z"/>
	<path fill="#9CD5E1" d="M285.371,273.041c-0.16,0.38-0.38,0.64-0.86,0.64h-1.36l3.501-7.782l-8.422-19.164h1.581
		c0.399,0,0.619,0.24,0.72,0.48l6.701,15.483c0.16,0.4,0.28,0.82,0.38,1.24c0.141-0.42,0.28-0.84,0.44-1.24l6.621-15.483
		c0.141-0.3,0.381-0.48,0.681-0.48h1.46L285.371,273.041z"/>
	<path fill="#9CD5E1" d="M316.046,256.678c0,6.221-3.34,10.222-9.062,10.222c-5.721,0-9.082-4.001-9.082-10.222
		c0-6.222,3.361-10.262,9.082-10.262C312.706,246.416,316.046,250.456,316.046,256.678z M314.086,256.678
		c0-5.301-2.36-8.762-7.102-8.762c-4.721,0-7.121,3.461-7.121,8.762c0,5.341,2.4,8.722,7.121,8.722
		C311.726,265.399,314.086,262.019,314.086,256.678z"/>
	<path fill="#9CD5E1" d="M321.994,246.735v12.723c0,3.741,1.681,5.981,5.181,5.981c2.581,0,4.861-1.4,6.642-3.741v-14.963h1.921
		v19.904h-1.061c-0.38,0-0.561-0.18-0.58-0.52l-0.18-2.961c-1.841,2.301-4.262,3.801-7.222,3.801c-4.401,0-6.622-2.881-6.622-7.502
		v-12.723H321.994z"/>
	<path fill="#9CD5E1" d="M341.301,266.64v-19.904h1.001c0.46,0,0.64,0.16,0.66,0.62l0.16,4.201c1.28-3.221,3.38-5.161,6.501-5.161
		c1.2,0,2.2,0.26,3.101,0.74l-0.26,1.32c-0.04,0.22-0.181,0.32-0.4,0.32c-0.32,0-1.12-0.52-2.801-0.52
		c-3.021,0-4.86,1.92-6.062,5.441v12.943H341.301z"/>
	<path fill="#9CD5E1" d="M378.004,249.396c-0.141,0.14-0.221,0.24-0.44,0.24c-0.54,0-1.721-1.721-5.041-1.721
		c-4.561,0-7.161,3.381-7.161,8.762c0,5.581,2.72,8.722,6.901,8.722c3.841,0,5.001-2.161,5.601-2.161c0.181,0,0.301,0.06,0.4,0.2
		l0.521,0.64c-1.24,1.62-3.801,2.821-6.802,2.821c-5.041,0-8.562-3.761-8.562-10.222c0-6.062,3.261-10.262,9.002-10.262
		c2.58,0,4.581,0.88,6.081,2.3L378.004,249.396z"/>
	<path fill="#9CD5E1" d="M382.304,266.64v-29.106h1.9v12.603c1.841-2.261,4.182-3.721,7.122-3.721c4.4,0,6.621,2.88,6.621,7.501
		v12.723h-1.9v-12.723c0-3.741-1.68-5.981-5.201-5.981c-2.62,0-4.881,1.44-6.642,3.781v14.923H382.304z"/>
	<path fill="#9CD5E1" d="M404.392,241.614c-0.96,0-1.76-0.8-1.76-1.74c0-0.98,0.8-1.78,1.76-1.78c0.94,0,1.78,0.8,1.78,1.78
		C406.172,240.814,405.332,241.614,404.392,241.614z M405.332,246.735v19.904h-1.9v-19.904H405.332z"/>
	<path fill="#9CD5E1" d="M413.291,237.533v29.106h-1.9v-29.106H413.291z"/>
	<path fill="#9CD5E1" d="M433.541,266.64c-0.34,0-0.521-0.18-0.58-0.52l-0.2-3.141c-1.761,2.4-4.121,3.921-7.062,3.921
		c-4.881,0-7.762-3.381-7.762-10.163c0-5.821,3.101-10.342,8.682-10.342c2.701,0,4.621,1.02,6.062,2.94v-11.803h1.921v29.106
		H433.541z M432.681,261.499v-10.502c-1.54-2.26-3.36-3.101-5.701-3.101c-4.681,0-7.081,3.601-7.081,8.842
		c0,5.921,2.26,8.622,6.341,8.622C428.88,265.359,431,263.919,432.681,261.499z"/>
</g>
<polygon fill="#FEE394" points="39.195,428.349 491.475,425.462 491.475,372.849 54.584,372.849 "/>
<polygon fill="#FDCE6F" points="47.602,325.384 54.5,373.265 491.202,373.265 491.202,325.384 "/>
<g>
	<path fill="#FFFFFF" d="M149.191,360.688l1.802,1.954c-1.989,2.465-4.844,3.825-8.924,3.825c-7.275,0-11.848-5.253-11.848-12.562
		c0-7.377,5.134-12.562,12.613-12.562c3.655,0,6.34,1.274,8.295,3.196l-1.53,2.124c-0.187,0.272-0.442,0.511-0.935,0.511
		c-1.037,0-1.904-1.938-5.864-1.938c-4.624,0-7.904,3.315-7.904,8.669c0,5.508,3.314,8.687,7.462,8.687
		c2.482,0,3.944-0.493,5.423-1.853c0.221-0.205,0.476-0.34,0.765-0.34C148.8,360.399,149.004,360.501,149.191,360.688z"/>
	<path fill="#FFFFFF" d="M162.197,356.591v9.604h-4.573v-24.579h7.496c6.714,0,9.468,2.906,9.468,7.07
		c0,3.332-1.972,5.934-5.422,7.021c0.578,0.322,1.071,0.799,1.496,1.41l6.153,9.077h-4.113c-0.799,0-1.326-0.323-1.717-0.918
		l-5.167-7.87c-0.391-0.595-0.765-0.816-1.666-0.816H162.197z M162.197,353.311h2.855c3.468,0,5.065-1.802,5.065-4.284
		c0-2.498-1.615-3.875-4.998-3.875h-2.923V353.311z"/>
	<path fill="#FFFFFF" d="M198.27,341.616v3.637h-10.896v6.816h8.584v3.52h-8.584v6.951h10.896v3.655h-15.502v-24.579H198.27z"/>
	<path fill="#FFFFFF" d="M226.863,366.195h-3.536c-0.799,0-1.309-0.442-1.53-1.037l-1.836-5.015H209.78l-1.836,5.015
		c-0.187,0.527-0.748,1.037-1.513,1.037h-3.553l9.655-24.579h4.675L226.863,366.195z M210.953,356.914h7.836l-2.992-8.176
		c-0.272-0.731-0.612-1.733-0.935-2.89c-0.323,1.156-0.629,2.176-0.918,2.924L210.953,356.914z"/>
	<path fill="#FFFFFF" d="M247.246,341.616v3.756h-7.394v20.823h-4.572v-20.823h-7.428v-3.756H247.246z"/>
	<path fill="#FFFFFF" d="M258.332,366.195h-4.59v-24.579h4.59V366.195z"/>
	<path fill="#FFFFFF" d="M264.469,341.616h3.689c0.799,0,1.274,0.424,1.529,1.037l5.779,14.992c0.391,0.969,0.73,2.158,1.054,3.45
		c0.255-1.309,0.578-2.448,0.97-3.45l5.762-14.992c0.204-0.527,0.748-1.037,1.513-1.037h3.688l-9.927,24.579h-4.13L264.469,341.616z
		"/>
	<path fill="#FFFFFF" d="M309.551,341.616v3.637h-10.896v6.816h8.585v3.52h-8.585v6.951h10.896v3.655h-15.503v-24.579H309.551z"/>
	<path fill="#FFFFFF" d="M317.882,361.317c1.717,0,2.55,1.325,2.55,2.872c0,2.176-1.343,4.93-3.739,6.833l-0.73-0.662
		c-0.204-0.17-0.307-0.375-0.307-0.629c0-0.188,0.136-0.426,0.323-0.612c0.493-0.544,1.563-1.614,1.836-2.975
		c-1.411,0-2.397-1.104-2.397-2.533C315.417,362.337,316.42,361.317,317.882,361.317z"/>
	<path fill="#FFFFFF" d="M349.977,346.087c-0.255,0.492-0.561,0.68-1.02,0.68c-0.918,0-2.142-1.7-4.946-1.7
		c-2.517,0-3.808,1.274-3.808,3.094c0,4.657,11.338,2.159,11.338,10.335c0,4.437-3.111,7.973-8.533,7.973
		c-3.128,0-6.171-1.275-8.074-3.23l1.325-2.192c0.255-0.323,0.612-0.562,1.037-0.562c1.139,0,2.465,2.244,5.848,2.244
		c2.601,0,4.097-1.275,4.097-3.586c0-5.202-11.321-1.752-11.321-10.744c0-3.604,2.924-7.054,8.04-7.054
		c2.907,0,5.423,0.952,7.14,2.584L349.977,346.087z"/>
	<path fill="#FFFFFF" d="M379.675,366.195h-3.536c-0.799,0-1.309-0.442-1.529-1.037l-1.836-5.015h-10.183l-1.836,5.015
		c-0.187,0.527-0.747,1.037-1.513,1.037h-3.553l9.655-24.579h4.675L379.675,366.195z M363.764,356.914h7.837l-2.992-8.176
		c-0.271-0.731-0.611-1.733-0.935-2.89c-0.323,1.156-0.629,2.176-0.918,2.924L363.764,356.914z"/>
	<path fill="#FFFFFF" d="M400.738,341.616v3.637h-10.896v7.275h9.196v3.654h-9.196v10.013h-4.606v-24.579H400.738z"/>
	<path fill="#FFFFFF" d="M422.854,341.616v3.637h-10.896v6.816h8.585v3.52h-8.585v6.951h10.896v3.655h-15.503v-24.579H422.854z"/>
	<path fill="#FFFFFF" d="M431.186,361.317c1.717,0,2.55,1.325,2.55,2.872c0,2.176-1.343,4.93-3.739,6.833l-0.731-0.662
		c-0.203-0.17-0.306-0.375-0.306-0.629c0-0.188,0.136-0.426,0.323-0.612c0.493-0.544,1.563-1.614,1.836-2.975
		c-1.411,0-2.396-1.104-2.396-2.533C428.722,362.337,429.724,361.317,431.186,361.317z"/>
	<path fill="#FFFFFF" d="M117.505,382.634v2.687h-11.696v8.517h9.996v2.686h-9.996v10.473h-3.315v-24.361H117.505z"/>
	<path fill="#FFFFFF" d="M134.232,404.377c1.009,0,1.91-0.17,2.703-0.51s1.465-0.815,2.015-1.429
		c0.549-0.611,0.969-1.342,1.258-2.192s0.434-1.785,0.434-2.806v-14.807h3.281v14.807c0,1.406-0.224,2.709-0.672,3.91
		c-0.448,1.202-1.088,2.242-1.921,3.12s-1.85,1.567-3.051,2.065c-1.202,0.498-2.55,0.748-4.046,0.748
		c-1.496,0-2.845-0.25-4.046-0.748s-2.221-1.188-3.06-2.065s-1.482-1.918-1.929-3.12c-0.448-1.201-0.671-2.504-0.671-3.91v-14.807
		h3.281v14.791c0,1.02,0.145,1.954,0.434,2.805c0.289,0.85,0.708,1.58,1.258,2.192s1.224,1.091,2.023,1.437
		C132.32,404.204,133.224,404.377,134.232,404.377z"/>
	<path fill="#FFFFFF" d="M154.964,382.745c0.142,0.073,0.303,0.224,0.484,0.45l14.11,18.36c-0.034-0.295-0.057-0.581-0.068-0.859
		c-0.011-0.277-0.017-0.547-0.017-0.807v-17.256h2.89v24.361h-1.666c-0.261,0-0.479-0.045-0.654-0.137
		c-0.176-0.09-0.349-0.242-0.519-0.459l-14.093-18.342c0.023,0.283,0.04,0.561,0.051,0.832c0.011,0.272,0.017,0.521,0.017,0.748
		v17.357h-2.89v-24.361h1.7C154.604,382.634,154.822,382.671,154.964,382.745z"/>
	<path fill="#FFFFFF" d="M210.97,406.995h-2.55c-0.295,0-0.533-0.074-0.714-0.221c-0.181-0.147-0.317-0.334-0.408-0.562
		l-2.278-5.882h-10.931l-2.278,5.882c-0.079,0.204-0.215,0.386-0.408,0.544c-0.193,0.159-0.431,0.238-0.714,0.238h-2.55
		l9.741-24.361h3.349L210.97,406.995z M195.007,397.951h9.095l-3.825-9.911c-0.25-0.611-0.493-1.377-0.731-2.295
		c-0.125,0.465-0.247,0.893-0.366,1.283s-0.235,0.734-0.349,1.029L195.007,397.951z"/>
	<path fill="#FFFFFF" d="M219.427,382.745c0.142,0.073,0.303,0.224,0.484,0.45l14.11,18.36c-0.034-0.295-0.057-0.581-0.068-0.859
		c-0.011-0.277-0.017-0.547-0.017-0.807v-17.256h2.89v24.361h-1.666c-0.261,0-0.479-0.045-0.654-0.137
		c-0.176-0.09-0.349-0.242-0.519-0.459l-14.093-18.342c0.023,0.283,0.04,0.561,0.051,0.832c0.011,0.272,0.017,0.521,0.017,0.748
		v17.357h-2.89v-24.361h1.7C219.067,382.634,219.286,382.671,219.427,382.745z"/>
	<path fill="#FFFFFF" d="M266.916,394.823c0,1.824-0.288,3.484-0.866,4.98s-1.394,2.777-2.448,3.842
		c-1.054,1.066-2.318,1.891-3.791,2.475s-3.105,0.875-4.896,0.875h-9.111v-24.361h9.111c1.791,0,3.424,0.293,4.896,0.876
		s2.737,1.411,3.791,2.481c1.055,1.071,1.87,2.355,2.448,3.852C266.628,391.338,266.916,392.999,266.916,394.823z M263.533,394.823
		c0-1.496-0.203-2.834-0.611-4.012c-0.408-1.18-0.986-2.176-1.734-2.992s-1.654-1.439-2.72-1.87s-2.25-0.646-3.554-0.646h-5.797
		v19.022h5.797c1.304,0,2.488-0.216,3.554-0.646c1.065-0.432,1.972-1.052,2.72-1.861c0.748-0.811,1.326-1.805,1.734-2.984
		C263.33,397.657,263.533,396.319,263.533,394.823z"/>
	<path fill="#FFFFFF" d="M293.486,404.377c1.009,0,1.91-0.17,2.703-0.51s1.465-0.815,2.015-1.429
		c0.55-0.611,0.969-1.342,1.258-2.192s0.434-1.785,0.434-2.806v-14.807h3.281v14.807c0,1.406-0.224,2.709-0.672,3.91
		c-0.447,1.202-1.088,2.242-1.921,3.12s-1.851,1.567-3.052,2.065s-2.55,0.748-4.046,0.748s-2.845-0.25-4.046-0.748
		s-2.222-1.188-3.06-2.065c-0.839-0.878-1.482-1.918-1.93-3.12c-0.448-1.201-0.672-2.504-0.672-3.91v-14.807h3.281v14.791
		c0,1.02,0.145,1.954,0.434,2.805c0.289,0.85,0.708,1.58,1.258,2.192s1.224,1.091,2.023,1.437
		C291.574,404.204,292.478,404.377,293.486,404.377z"/>
	<path fill="#FFFFFF" d="M324.342,386.442c-0.102,0.17-0.209,0.297-0.322,0.383c-0.113,0.084-0.261,0.127-0.442,0.127
		c-0.192,0-0.416-0.096-0.672-0.289c-0.255-0.192-0.577-0.405-0.969-0.638c-0.391-0.231-0.861-0.444-1.411-0.638
		c-0.55-0.192-1.215-0.289-1.997-0.289c-0.737,0-1.389,0.1-1.955,0.298s-1.04,0.468-1.42,0.808s-0.665,0.74-0.858,1.199
		c-0.192,0.459-0.289,0.954-0.289,1.486c0,0.681,0.167,1.244,0.502,1.691c0.334,0.448,0.776,0.831,1.326,1.148
		c0.55,0.316,1.173,0.592,1.87,0.824c0.696,0.232,1.411,0.473,2.142,0.723c0.731,0.249,1.445,0.529,2.142,0.842
		c0.697,0.312,1.32,0.705,1.87,1.182c0.55,0.475,0.992,1.059,1.326,1.75s0.502,1.541,0.502,2.551c0,1.064-0.182,2.064-0.544,3
		c-0.363,0.936-0.893,1.748-1.59,2.439s-1.553,1.235-2.567,1.632c-1.014,0.397-2.167,0.595-3.459,0.595
		c-1.575,0-3.012-0.285-4.31-0.857s-2.405-1.346-3.323-2.321l0.952-1.563c0.09-0.125,0.2-0.23,0.331-0.314
		c0.13-0.086,0.274-0.128,0.434-0.128c0.238,0,0.51,0.128,0.815,0.383c0.307,0.255,0.688,0.535,1.147,0.841
		c0.46,0.307,1.015,0.587,1.666,0.842c0.652,0.256,1.448,0.383,2.389,0.383c0.782,0,1.479-0.107,2.091-0.323
		c0.612-0.215,1.131-0.519,1.556-0.909c0.426-0.391,0.751-0.859,0.978-1.402c0.227-0.545,0.34-1.15,0.34-1.819
		c0-0.737-0.167-1.341-0.501-1.811c-0.335-0.47-0.773-0.864-1.317-1.182s-1.165-0.587-1.861-0.808
		c-0.697-0.221-1.411-0.447-2.143-0.68c-0.73-0.232-1.444-0.502-2.142-0.808s-1.317-0.702-1.861-1.19
		c-0.544-0.486-0.983-1.096-1.318-1.827c-0.334-0.731-0.501-1.635-0.501-2.712c0-0.861,0.167-1.693,0.501-2.498
		c0.335-0.805,0.819-1.52,1.454-2.143s1.419-1.122,2.354-1.496c0.935-0.373,2.009-0.561,3.222-0.561
		c1.359,0,2.601,0.215,3.723,0.646c1.122,0.43,2.103,1.053,2.941,1.869L324.342,386.442z"/>
	<path fill="#FFFFFF" d="M347.921,382.634v2.687h-11.695v8.092h9.469v2.584h-9.469v8.313h11.695v2.686H332.91v-24.361H347.921z"/>
	<path fill="#FFFFFF" d="M370.7,382.634v2.687h-11.695v8.517H369v2.686h-9.995v10.473h-3.315v-24.361H370.7z"/>
	<path fill="#FFFFFF" d="M387.428,404.377c1.009,0,1.91-0.17,2.703-0.51s1.465-0.815,2.015-1.429
		c0.55-0.611,0.969-1.342,1.258-2.192s0.434-1.785,0.434-2.806v-14.807h3.281v14.807c0,1.406-0.224,2.709-0.672,3.91
		c-0.447,1.202-1.088,2.242-1.921,3.12s-1.851,1.567-3.052,2.065s-2.55,0.748-4.046,0.748s-2.845-0.25-4.046-0.748
		s-2.222-1.188-3.06-2.065c-0.839-0.878-1.482-1.918-1.93-3.12c-0.448-1.201-0.672-2.504-0.672-3.91v-14.807h3.281v14.791
		c0,1.02,0.145,1.954,0.434,2.805c0.289,0.85,0.708,1.58,1.258,2.192s1.224,1.091,2.023,1.437
		C385.516,404.204,386.419,404.377,387.428,404.377z"/>
	<path fill="#FFFFFF" d="M409.104,404.224h10.54v2.771h-13.838v-24.361h3.298V404.224z"/>
	<path fill="#FFFFFF" d="M427.055,405.125c0-0.294,0.054-0.572,0.161-0.833c0.107-0.26,0.255-0.486,0.442-0.68
		c0.187-0.193,0.41-0.346,0.672-0.459c0.26-0.113,0.538-0.17,0.833-0.17c0.294,0,0.571,0.057,0.833,0.17
		c0.26,0.113,0.486,0.266,0.68,0.459c0.192,0.193,0.343,0.42,0.45,0.68c0.107,0.261,0.162,0.539,0.162,0.833
		c0,0.306-0.055,0.587-0.162,0.842s-0.258,0.479-0.45,0.671c-0.193,0.193-0.42,0.344-0.68,0.451
		c-0.262,0.107-0.539,0.161-0.833,0.161c-0.295,0-0.573-0.054-0.833-0.161c-0.262-0.107-0.485-0.258-0.672-0.451
		c-0.188-0.192-0.335-0.416-0.442-0.671S427.055,405.431,427.055,405.125z M430.658,382.634v9.725c0,0.51-0.008,1.009-0.025,1.496
		c-0.017,0.486-0.042,0.977-0.076,1.471c-0.034,0.492-0.076,0.997-0.128,1.512c-0.051,0.517-0.11,1.068-0.178,1.658h-2.058
		c-0.067-0.59-0.127-1.142-0.179-1.658c-0.051-0.515-0.093-1.02-0.127-1.512c-0.034-0.494-0.06-0.984-0.076-1.471
		c-0.018-0.487-0.026-0.986-0.026-1.496v-9.725H430.658z"/>
</g>
</svg>
